<?xml version="1.0" encoding="UTF-8"?>
<svg xmlns="http://www.w3.org/2000/svg" xmlns:xlink="http://www.w3.org/1999/xlink" width="375pt" height="374.999991pt" viewBox="0 0 375 374.999991" version="1.2">
<defs>
<g>
<symbol overflow="visible" id="glyph1-0">
<path style="stroke:none;" d="M 6.140625 0 L 0.921875 0 L 0.921875 -12.796875 L 6.140625 -12.796875 Z M 5.734375 -0.75 L 5.734375 -12.046875 L 3.734375 -6.40625 Z M 1.3125 -11.96875 L 1.3125 -0.828125 L 3.296875 -6.40625 Z M 1.609375 -0.46875 L 5.40625 -0.46875 L 3.5 -5.796875 Z M 3.5 -7 L 5.40625 -12.328125 L 1.609375 -12.328125 Z M 3.5 -7 "/>
</symbol>
<symbol overflow="visible" id="glyph1-1">
<path style="stroke:none;" d="M 4.75 0.171875 C 3.46875 0.171875 2.46875 -0.207031 1.75 -0.96875 C 1.039062 -1.726562 0.6875 -2.816406 0.6875 -4.234375 L 0.6875 -5 C 0.6875 -6.5 1.015625 -7.65625 1.671875 -8.46875 C 2.328125 -9.28125 3.265625 -9.6875 4.484375 -9.6875 C 5.679688 -9.6875 6.582031 -9.300781 7.1875 -8.53125 C 7.789062 -7.769531 8.097656 -6.640625 8.109375 -5.140625 L 8.109375 -3.921875 L 3.171875 -3.921875 C 3.203125 -3.210938 3.351562 -2.695312 3.625 -2.375 C 3.90625 -2.050781 4.332031 -1.890625 4.90625 -1.890625 C 5.738281 -1.890625 6.429688 -2.175781 6.984375 -2.75 L 7.96875 -1.234375 C 7.65625 -0.816406 7.207031 -0.476562 6.625 -0.21875 C 6.050781 0.0390625 5.425781 0.171875 4.75 0.171875 Z M 3.1875 -5.65625 L 5.671875 -5.65625 L 5.671875 -5.890625 C 5.660156 -6.453125 5.566406 -6.878906 5.390625 -7.171875 C 5.210938 -7.472656 4.90625 -7.625 4.46875 -7.625 C 4.039062 -7.625 3.726562 -7.46875 3.53125 -7.15625 C 3.332031 -6.84375 3.21875 -6.34375 3.1875 -5.65625 Z M 3.1875 -5.65625 "/>
</symbol>
<symbol overflow="visible" id="glyph1-2">
<path style="stroke:none;" d="M 5.109375 -2.546875 C 5.109375 -2.753906 5.007812 -2.945312 4.8125 -3.125 C 4.613281 -3.3125 4.164062 -3.554688 3.46875 -3.859375 C 2.4375 -4.273438 1.726562 -4.703125 1.34375 -5.140625 C 0.96875 -5.585938 0.78125 -6.144531 0.78125 -6.8125 C 0.78125 -7.644531 1.078125 -8.332031 1.671875 -8.875 C 2.273438 -9.414062 3.070312 -9.6875 4.0625 -9.6875 C 5.101562 -9.6875 5.9375 -9.414062 6.5625 -8.875 C 7.1875 -8.332031 7.5 -7.609375 7.5 -6.703125 L 5.015625 -6.703125 C 5.015625 -7.472656 4.691406 -7.859375 4.046875 -7.859375 C 3.785156 -7.859375 3.566406 -7.773438 3.390625 -7.609375 C 3.222656 -7.453125 3.140625 -7.226562 3.140625 -6.9375 C 3.140625 -6.726562 3.234375 -6.539062 3.421875 -6.375 C 3.609375 -6.21875 4.050781 -5.988281 4.75 -5.6875 C 5.769531 -5.3125 6.488281 -4.894531 6.90625 -4.4375 C 7.320312 -3.976562 7.53125 -3.378906 7.53125 -2.640625 C 7.53125 -1.796875 7.207031 -1.113281 6.5625 -0.59375 C 5.925781 -0.0820312 5.09375 0.171875 4.0625 0.171875 C 3.363281 0.171875 2.75 0.0351562 2.21875 -0.234375 C 1.6875 -0.503906 1.269531 -0.878906 0.96875 -1.359375 C 0.664062 -1.847656 0.515625 -2.375 0.515625 -2.9375 L 2.875 -2.9375 C 2.882812 -2.507812 2.984375 -2.1875 3.171875 -1.96875 C 3.367188 -1.75 3.679688 -1.640625 4.109375 -1.640625 C 4.773438 -1.640625 5.109375 -1.941406 5.109375 -2.546875 Z M 5.109375 -2.546875 "/>
</symbol>
<symbol overflow="visible" id="glyph1-3">
<path style="stroke:none;" d="M 3.796875 -11.84375 L 3.796875 -9.515625 L 5.078125 -9.515625 L 5.078125 -7.640625 L 3.796875 -7.640625 L 3.796875 -2.921875 C 3.796875 -2.546875 3.847656 -2.285156 3.953125 -2.140625 C 4.054688 -2.003906 4.253906 -1.9375 4.546875 -1.9375 C 4.785156 -1.9375 4.984375 -1.957031 5.140625 -2 L 5.109375 -0.0625 C 4.691406 0.09375 4.238281 0.171875 3.75 0.171875 C 2.144531 0.171875 1.332031 -0.742188 1.3125 -2.578125 L 1.3125 -7.640625 L 0.21875 -7.640625 L 0.21875 -9.515625 L 1.3125 -9.515625 L 1.3125 -11.84375 Z M 3.796875 -11.84375 "/>
</symbol>
<symbol overflow="visible" id="glyph1-4">
<path style="stroke:none;" d="M 1.109375 -1.265625 C 1.109375 -1.660156 1.238281 -1.988281 1.5 -2.25 C 1.769531 -2.507812 2.117188 -2.640625 2.546875 -2.640625 C 2.960938 -2.640625 3.304688 -2.507812 3.578125 -2.25 C 3.859375 -2 4 -1.671875 4 -1.265625 C 4 -0.859375 3.859375 -0.53125 3.578125 -0.28125 C 3.304688 -0.03125 2.960938 0.09375 2.546875 0.09375 C 2.128906 0.09375 1.785156 -0.03125 1.515625 -0.28125 C 1.242188 -0.53125 1.109375 -0.859375 1.109375 -1.265625 Z M 1.109375 -1.265625 "/>
</symbol>
<symbol overflow="visible" id="glyph1-5">
<path style="stroke:none;" d=""/>
</symbol>
<symbol overflow="visible" id="glyph1-6">
<path style="stroke:none;" d="M 8.265625 -5.296875 C 8.265625 -3.523438 7.941406 -2.171875 7.296875 -1.234375 C 6.660156 -0.296875 5.75 0.171875 4.5625 0.171875 C 3.382812 0.171875 2.472656 -0.28125 1.828125 -1.1875 C 1.191406 -2.101562 0.859375 -3.410156 0.828125 -5.109375 L 0.828125 -7.53125 C 0.828125 -9.289062 1.144531 -10.632812 1.78125 -11.5625 C 2.425781 -12.5 3.347656 -12.96875 4.546875 -12.96875 C 5.742188 -12.96875 6.660156 -12.503906 7.296875 -11.578125 C 7.929688 -10.660156 8.253906 -9.34375 8.265625 -7.625 Z M 5.78125 -7.890625 C 5.78125 -8.890625 5.675781 -9.640625 5.46875 -10.140625 C 5.269531 -10.648438 4.960938 -10.90625 4.546875 -10.90625 C 3.753906 -10.90625 3.34375 -9.984375 3.3125 -8.140625 L 3.3125 -4.953125 C 3.3125 -3.921875 3.410156 -3.148438 3.609375 -2.640625 C 3.816406 -2.140625 4.132812 -1.890625 4.5625 -1.890625 C 4.96875 -1.890625 5.265625 -2.125 5.453125 -2.59375 C 5.648438 -3.070312 5.757812 -3.796875 5.78125 -4.765625 Z M 5.78125 -7.890625 "/>
</symbol>
<symbol overflow="visible" id="glyph1-7">
<path style="stroke:none;" d="M 8.375 0 L 0.828125 0 L 0.828125 -1.765625 L 4.296875 -6.15625 C 4.734375 -6.769531 5.054688 -7.304688 5.265625 -7.765625 C 5.472656 -8.222656 5.578125 -8.664062 5.578125 -9.09375 C 5.578125 -9.65625 5.476562 -10.097656 5.28125 -10.421875 C 5.09375 -10.742188 4.8125 -10.90625 4.4375 -10.90625 C 4.03125 -10.90625 3.707031 -10.71875 3.46875 -10.34375 C 3.238281 -9.96875 3.125 -9.441406 3.125 -8.765625 L 0.625 -8.765625 C 0.625 -9.546875 0.785156 -10.257812 1.109375 -10.90625 C 1.429688 -11.5625 1.882812 -12.066406 2.46875 -12.421875 C 3.0625 -12.785156 3.734375 -12.96875 4.484375 -12.96875 C 5.628906 -12.96875 6.515625 -12.648438 7.140625 -12.015625 C 7.773438 -11.390625 8.09375 -10.5 8.09375 -9.34375 C 8.09375 -8.625 7.914062 -7.890625 7.5625 -7.140625 C 7.21875 -6.398438 6.585938 -5.488281 5.671875 -4.40625 L 4.03125 -2.0625 L 8.375 -2.0625 Z M 8.375 0 "/>
</symbol>
<symbol overflow="visible" id="glyph1-8">
<path style="stroke:none;" d="M 5.65625 -4.953125 C 5.132812 -4.410156 4.554688 -4.140625 3.921875 -4.140625 C 2.953125 -4.140625 2.1875 -4.53125 1.625 -5.3125 C 1.070312 -6.09375 0.796875 -7.140625 0.796875 -8.453125 C 0.796875 -9.296875 0.953125 -10.066406 1.265625 -10.765625 C 1.578125 -11.460938 2.015625 -12.003906 2.578125 -12.390625 C 3.148438 -12.773438 3.785156 -12.96875 4.484375 -12.96875 C 5.203125 -12.96875 5.84375 -12.753906 6.40625 -12.328125 C 6.96875 -11.898438 7.40625 -11.285156 7.71875 -10.484375 C 8.03125 -9.691406 8.1875 -8.785156 8.1875 -7.765625 L 8.1875 -6.859375 C 8.1875 -4.679688 7.707031 -2.976562 6.75 -1.75 C 5.789062 -0.519531 4.429688 0.101562 2.671875 0.125 L 2.421875 0.125 L 2.421875 -2.015625 L 2.578125 -2.015625 C 3.554688 -2.015625 4.289062 -2.265625 4.78125 -2.765625 C 5.269531 -3.265625 5.5625 -3.992188 5.65625 -4.953125 Z M 4.5625 -6.09375 C 5.039062 -6.09375 5.421875 -6.421875 5.703125 -7.078125 L 5.703125 -8.21875 C 5.703125 -9.050781 5.585938 -9.707031 5.359375 -10.1875 C 5.128906 -10.664062 4.832031 -10.90625 4.46875 -10.90625 C 4.101562 -10.90625 3.8125 -10.671875 3.59375 -10.203125 C 3.375 -9.734375 3.265625 -9.15625 3.265625 -8.46875 C 3.265625 -7.726562 3.378906 -7.144531 3.609375 -6.71875 C 3.835938 -6.300781 4.15625 -6.09375 4.5625 -6.09375 Z M 4.5625 -6.09375 "/>
</symbol>
<symbol overflow="visible" id="glyph1-9">
<path style="stroke:none;" d="M 8 -9.390625 C 8 -8.773438 7.867188 -8.222656 7.609375 -7.734375 C 7.347656 -7.253906 6.984375 -6.875 6.515625 -6.59375 C 7.046875 -6.289062 7.460938 -5.878906 7.765625 -5.359375 C 8.078125 -4.835938 8.234375 -4.21875 8.234375 -3.5 C 8.234375 -2.363281 7.90625 -1.46875 7.25 -0.8125 C 6.59375 -0.15625 5.695312 0.171875 4.5625 0.171875 C 3.425781 0.171875 2.523438 -0.15625 1.859375 -0.8125 C 1.191406 -1.46875 0.859375 -2.363281 0.859375 -3.5 C 0.859375 -4.21875 1.007812 -4.835938 1.3125 -5.359375 C 1.625 -5.890625 2.046875 -6.300781 2.578125 -6.59375 C 2.109375 -6.875 1.738281 -7.253906 1.46875 -7.734375 C 1.207031 -8.222656 1.078125 -8.773438 1.078125 -9.390625 C 1.078125 -10.515625 1.390625 -11.390625 2.015625 -12.015625 C 2.648438 -12.648438 3.492188 -12.96875 4.546875 -12.96875 C 5.609375 -12.96875 6.445312 -12.648438 7.0625 -12.015625 C 7.6875 -11.378906 8 -10.503906 8 -9.390625 Z M 4.5625 -1.890625 C 4.9375 -1.890625 5.222656 -2.046875 5.421875 -2.359375 C 5.628906 -2.679688 5.734375 -3.125 5.734375 -3.6875 C 5.734375 -4.257812 5.625 -4.707031 5.40625 -5.03125 C 5.195312 -5.351562 4.90625 -5.515625 4.53125 -5.515625 C 4.164062 -5.515625 3.875 -5.351562 3.65625 -5.03125 C 3.445312 -4.707031 3.34375 -4.257812 3.34375 -3.6875 C 3.34375 -3.125 3.445312 -2.679688 3.65625 -2.359375 C 3.875 -2.046875 4.175781 -1.890625 4.5625 -1.890625 Z M 5.53125 -9.265625 C 5.53125 -9.765625 5.445312 -10.160156 5.28125 -10.453125 C 5.125 -10.753906 4.878906 -10.90625 4.546875 -10.90625 C 4.222656 -10.90625 3.976562 -10.757812 3.8125 -10.46875 C 3.65625 -10.175781 3.578125 -9.773438 3.578125 -9.265625 C 3.578125 -8.765625 3.65625 -8.359375 3.8125 -8.046875 C 3.976562 -7.734375 4.222656 -7.578125 4.546875 -7.578125 C 4.878906 -7.578125 5.125 -7.734375 5.28125 -8.046875 C 5.445312 -8.359375 5.53125 -8.765625 5.53125 -9.265625 Z M 5.53125 -9.265625 "/>
</symbol>
<symbol overflow="visible" id="glyph0-0">
<path style="stroke:none;" d="M 9.765625 1.984375 C 15.722656 1.984375 20.769531 0.0820312 22.839844 -4.714844 C 24.492188 -8.605469 23.582031 -13.902344 20.4375 -17.542969 C 20.6875 -17.625 20.851562 -17.792969 21.101562 -18.039062 C 25.402344 -22.257812 25.488281 -27.804688 25.320312 -29.957031 C 24.578125 -40.132812 12.910156 -46.917969 1.820312 -44.933594 L 2.730469 -40.132812 L 4.304688 -40.296875 L 4.304688 -3.394531 L 2.648438 -3.722656 L 1.820312 1.160156 C 4.800781 1.738281 7.363281 1.984375 9.765625 1.984375 Z M 9.433594 -18.617188 L 9.433594 -40.050781 C 15.058594 -38.808594 20.109375 -34.671875 20.4375 -29.625 C 20.769531 -22.921875 16.550781 -18.867188 9.433594 -18.617188 Z M 9.433594 -2.894531 L 9.433594 -13.652344 C 11.832031 -13.738281 12.992188 -13.984375 15.96875 -14.8125 C 18.371094 -13.40625 19.445312 -9.019531 18.371094 -6.785156 C 16.878906 -3.476562 12.992188 -2.894531 9.433594 -2.894531 Z M 9.433594 -2.894531 "/>
</symbol>
<symbol overflow="visible" id="glyph0-1">
<path style="stroke:none;" d="M 25.652344 5.625 L 29.789062 3.0625 L 17.957031 -15.804688 C 19.113281 -16.382812 20.109375 -17.210938 21.019531 -18.039062 C 25.320312 -22.257812 25.402344 -27.804688 25.238281 -29.957031 C 24.492188 -40.132812 12.824219 -46.917969 1.820312 -44.933594 L 2.648438 -40.132812 L 4.304688 -40.296875 L 4.304688 1.820312 L 9.351562 1.820312 L 9.351562 -13.652344 C 10.675781 -13.652344 12 -13.820312 13.238281 -14.066406 Z M 9.351562 -18.617188 L 9.351562 -40.050781 C 14.976562 -38.808594 19.859375 -34.753906 20.355469 -29.625 C 20.769531 -22.921875 16.46875 -18.867188 9.351562 -18.617188 Z M 9.351562 -18.617188 "/>
</symbol>
<symbol overflow="visible" id="glyph0-2">
<path style="stroke:none;" d="M 2.398438 1.820312 L 18.453125 1.820312 L 18.453125 -2.730469 L 7.28125 -2.730469 L 7.28125 -15.308594 L 16.21875 -15.308594 L 16.21875 -19.941406 L 7.28125 -19.941406 L 7.28125 -40.710938 L 18.453125 -40.710938 L 18.453125 -45.347656 L 2.398438 -45.347656 Z M 2.398438 1.820312 "/>
</symbol>
<symbol overflow="visible" id="glyph0-3">
<path style="stroke:none;" d=""/>
</symbol>
<symbol overflow="visible" id="glyph0-4">
<path style="stroke:none;" d="M 2.398438 1.820312 L 21.679688 1.820312 L 21.679688 -3.0625 L 7.28125 -3.0625 L 7.28125 -45.347656 L 2.398438 -45.347656 Z M 2.398438 1.820312 "/>
</symbol>
<symbol overflow="visible" id="glyph0-5">
<path style="stroke:none;" d="M 25.238281 5.625 L 30.039062 4.550781 L 24.246094 -19.113281 C 25.652344 -19.363281 27.140625 -19.777344 28.21875 -20.355469 L 25.902344 -24.660156 C 24.824219 -24.246094 23.667969 -23.75 23.167969 -23.75 L 17.707031 -46.007812 L 12.992188 -46.089844 L 6.453125 -22.507812 C 5.710938 -22.507812 4.46875 -22.507812 3.804688 -22.589844 L 3.558594 -18.867188 C 4.21875 -18.785156 5.128906 -18.703125 5.460938 -18.703125 L 0.660156 -1.074219 L 5.378906 0.164062 L 10.507812 -18.371094 C 13.15625 -18.371094 17.875 -18.371094 19.363281 -18.535156 Z M 11.585938 -22.507812 L 15.226562 -35.582031 L 18.289062 -22.921875 C 18.371094 -22.921875 13.738281 -22.507812 11.585938 -22.507812 Z M 11.585938 -22.507812 "/>
</symbol>
<symbol overflow="visible" id="glyph0-6">
<path style="stroke:none;" d="M 2.398438 1.820312 L 7.28125 1.820312 L 7.28125 -30.78125 L 18.371094 -0.0820312 L 23.996094 -0.0820312 L 23.996094 -45.347656 L 19.113281 -45.347656 L 19.113281 -10.179688 L 7.28125 -43.03125 L 2.398438 -43.03125 Z M 2.398438 1.820312 "/>
</symbol>
<symbol overflow="visible" id="glyph0-7">
<path style="stroke:none;" d="M 4.136719 1.902344 C 14.976562 1.902344 22.425781 -3.890625 24.164062 -14.316406 C 25.984375 -26.148438 22.34375 -37.320312 12.414062 -42.699219 C 9.515625 -44.1875 6.207031 -45.097656 2.484375 -45.347656 L 2.070312 -40.464844 C 2.730469 -40.464844 3.308594 -40.382812 3.972656 -40.296875 L 3.972656 -2.980469 C 3.394531 -2.980469 2.730469 -2.980469 2.070312 -3.0625 L 1.820312 1.820312 C 2.648438 1.902344 3.394531 1.902344 4.136719 1.902344 Z M 8.855469 -3.476562 L 8.855469 -38.976562 C 14.5625 -36.492188 18.039062 -31.527344 19.199219 -25.238281 C 19.777344 -22.011719 19.777344 -18.617188 19.199219 -15.144531 C 18.453125 -10.425781 15.886719 -5.128906 8.855469 -3.476562 Z M 8.855469 -3.476562 "/>
</symbol>
</g>
<clipPath id="clip1">
  <path d="M 16 3.507812 L 260 3.507812 L 260 304 L 16 304 Z M 16 3.507812 "/>
</clipPath>
<clipPath id="clip2">
  <path d="M 171 73 L 187 73 L 187 89 L 171 89 Z M 171 73 "/>
</clipPath>
<clipPath id="clip3">
  <path d="M 152.019531 91.265625 L 192.480469 56.648438 L 236.363281 107.933594 L 195.90625 142.554688 Z M 152.019531 91.265625 "/>
</clipPath>
<clipPath id="clip4">
  <path d="M 152.015625 91.269531 L 192.476562 56.652344 L 236.359375 107.9375 L 195.898438 142.558594 Z M 152.015625 91.269531 "/>
</clipPath>
<clipPath id="clip5">
  <path d="M 189 93 L 201 93 L 201 107 L 189 107 Z M 189 93 "/>
</clipPath>
<clipPath id="clip6">
  <path d="M 152.019531 91.265625 L 192.480469 56.648438 L 236.363281 107.933594 L 195.90625 142.554688 Z M 152.019531 91.265625 "/>
</clipPath>
<clipPath id="clip7">
  <path d="M 152.015625 91.269531 L 192.476562 56.652344 L 236.359375 107.9375 L 195.898438 142.558594 Z M 152.015625 91.269531 "/>
</clipPath>
<clipPath id="clip8">
  <path d="M 172 104 L 186 104 L 186 116 L 172 116 Z M 172 104 "/>
</clipPath>
<clipPath id="clip9">
  <path d="M 152.019531 91.265625 L 192.480469 56.648438 L 236.363281 107.933594 L 195.90625 142.554688 Z M 152.019531 91.265625 "/>
</clipPath>
<clipPath id="clip10">
  <path d="M 152.015625 91.269531 L 192.476562 56.652344 L 236.359375 107.9375 L 195.898438 142.558594 Z M 152.015625 91.269531 "/>
</clipPath>
<clipPath id="clip11">
  <path d="M 202 82 L 216 82 L 216 94 L 202 94 Z M 202 82 "/>
</clipPath>
<clipPath id="clip12">
  <path d="M 152.019531 91.265625 L 192.480469 56.648438 L 236.363281 107.933594 L 195.90625 142.554688 Z M 152.019531 91.265625 "/>
</clipPath>
<clipPath id="clip13">
  <path d="M 152.015625 91.269531 L 192.476562 56.652344 L 236.359375 107.9375 L 195.898438 142.558594 Z M 152.015625 91.269531 "/>
</clipPath>
<clipPath id="clip14">
  <path d="M 199 110 L 215 110 L 215 128 L 199 128 Z M 199 110 "/>
</clipPath>
<clipPath id="clip15">
  <path d="M 152.019531 91.265625 L 192.480469 56.648438 L 236.363281 107.933594 L 195.90625 142.554688 Z M 152.019531 91.265625 "/>
</clipPath>
<clipPath id="clip16">
  <path d="M 152.015625 91.269531 L 192.476562 56.652344 L 236.359375 107.9375 L 195.898438 142.558594 Z M 152.015625 91.269531 "/>
</clipPath>
<clipPath id="clip17">
  <path d="M 176 95 L 184 95 L 184 100 L 176 100 Z M 176 95 "/>
</clipPath>
<clipPath id="clip18">
  <path d="M 152.019531 91.265625 L 192.480469 56.648438 L 236.363281 107.933594 L 195.90625 142.554688 Z M 152.019531 91.265625 "/>
</clipPath>
<clipPath id="clip19">
  <path d="M 152.015625 91.269531 L 192.476562 56.652344 L 236.359375 107.9375 L 195.898438 142.558594 Z M 152.015625 91.269531 "/>
</clipPath>
<clipPath id="clip20">
  <path d="M 190 112 L 194 112 L 194 121 L 190 121 Z M 190 112 "/>
</clipPath>
<clipPath id="clip21">
  <path d="M 152.019531 91.265625 L 192.480469 56.648438 L 236.363281 107.933594 L 195.90625 142.554688 Z M 152.019531 91.265625 "/>
</clipPath>
<clipPath id="clip22">
  <path d="M 152.015625 91.269531 L 192.476562 56.652344 L 236.359375 107.9375 L 195.898438 142.558594 Z M 152.015625 91.269531 "/>
</clipPath>
<clipPath id="clip23">
  <path d="M 210 105 L 218 105 L 218 110 L 210 110 Z M 210 105 "/>
</clipPath>
<clipPath id="clip24">
  <path d="M 152.019531 91.265625 L 192.480469 56.648438 L 236.363281 107.933594 L 195.90625 142.554688 Z M 152.019531 91.265625 "/>
</clipPath>
<clipPath id="clip25">
  <path d="M 152.015625 91.269531 L 192.476562 56.652344 L 236.359375 107.9375 L 195.898438 142.558594 Z M 152.015625 91.269531 "/>
</clipPath>
<clipPath id="clip26">
  <path d="M 194 77 L 200 77 L 200 87 L 194 87 Z M 194 77 "/>
</clipPath>
<clipPath id="clip27">
  <path d="M 152.019531 91.265625 L 192.480469 56.648438 L 236.363281 107.933594 L 195.90625 142.554688 Z M 152.019531 91.265625 "/>
</clipPath>
<clipPath id="clip28">
  <path d="M 152.015625 91.269531 L 192.476562 56.652344 L 236.359375 107.9375 L 195.898438 142.558594 Z M 152.015625 91.269531 "/>
</clipPath>
</defs>
<g id="surface1">
<path style=" stroke:none;fill-rule:nonzero;fill:rgb(34.118652%,48.239136%,85.099792%);fill-opacity:1;" d="M 355.410156 250.703125 C 352.960938 256.566406 350.472656 262.675781 347.558594 268.5625 C 345.707031 271.898438 343.4375 275.3125 342.035156 276.929688 C 339.972656 279.324219 339.320312 278.972656 340.824219 275.976562 C 342.675781 272.433594 344.648438 268.664062 346.769531 264.601562 C 348.648438 260.417969 350.761719 256.003906 353.183594 251.28125 C 353.867188 249.972656 354.242188 248.867188 354.71875 247.8125 C 355.46875 246.050781 356.425781 244.601562 356.542969 244.984375 C 356.746094 245.679688 356.410156 247.5625 355.410156 250.703125 Z M 334.363281 283.042969 C 333.945312 283.457031 333.625 283.523438 333.863281 283.101562 C 335.496094 280.417969 337.539062 277.058594 340.183594 272.703125 C 340.394531 272.371094 340.671875 272.109375 340.917969 271.8125 C 340.945312 271.898438 341.082031 271.828125 340.984375 272.085938 C 340.117188 274.160156 338.863281 277.050781 336.367188 280.65625 C 335.777344 281.449219 334.820312 282.59375 334.363281 283.042969 Z M 314.214844 311.808594 C 313.808594 312.15625 313.292969 312.605469 312.886719 312.957031 C 311.566406 314.023438 310.730469 314.460938 310.957031 313.960938 C 311.167969 313.488281 311.90625 312.644531 313.472656 311.238281 C 313.886719 310.914062 314.421875 310.480469 314.734375 310.234375 C 316.707031 308.855469 316.421875 309.738281 314.214844 311.808594 Z M 291.835938 329.585938 C 290.34375 330.941406 288.847656 332.289062 287.238281 333.742188 C 285.925781 334.878906 283.0625 336.679688 280.519531 338.011719 C 278.132812 339.289062 275.855469 339.695312 275.921875 339.289062 C 276.257812 339.007812 276.542969 338.640625 277.402344 338.066406 C 279.5625 336.625 282.554688 334.40625 285.984375 332.285156 C 287.226562 331.5 289 330.527344 290.40625 329.78125 C 291.734375 329.078125 292.449219 329.023438 291.835938 329.585938 Z M 256.910156 348.09375 C 256.625 348.171875 256.5625 348.121094 256.40625 348.121094 C 256.804688 347.96875 257.3125 347.777344 257.578125 347.675781 C 257.859375 347.59375 257.921875 347.652344 258.078125 347.648438 C 257.675781 347.800781 257.167969 347.996094 256.910156 348.09375 Z M 242.574219 352.890625 C 242.285156 352.945312 242.230469 352.882812 242.074219 352.867188 C 242.488281 352.757812 243.007812 352.617188 243.28125 352.542969 C 243.570312 352.488281 243.625 352.554688 243.78125 352.566406 C 243.367188 352.675781 242.84375 352.820312 242.574219 352.890625 Z M 232.160156 356.261719 C 231.675781 356.488281 230.496094 356.882812 229.542969 356.972656 C 228.097656 357.171875 227.550781 357.101562 227.96875 356.871094 C 228.882812 356.675781 229.761719 356.429688 230.714844 356.289062 C 232.144531 355.949219 232.890625 355.9375 232.160156 356.261719 Z M 221.4375 355.375 C 217.328125 356.601562 211.847656 357.789062 204.886719 357.90625 C 203.367188 357.976562 201.414062 357.910156 200.007812 357.835938 C 199.210938 357.796875 198.476562 357.613281 198.792969 357.507812 C 201.71875 356.535156 206.074219 355.773438 213.472656 354.988281 C 214.464844 354.851562 215.816406 354.660156 217 354.496094 C 219.941406 354.136719 223.0625 354.03125 223.039062 354.375 C 223.011719 354.648438 222.742188 355.011719 221.4375 355.375 Z M 208.542969 360.351562 C 202.855469 360.996094 198.375 361.671875 196.582031 362.515625 C 195.949219 362.886719 193.753906 362.972656 191.214844 362.828125 C 185.472656 362.640625 180.417969 362.480469 175.679688 362.328125 C 172.496094 362.039062 168.773438 361.484375 163.621094 360.53125 C 157 359.261719 149.019531 356.769531 141.234375 354.507812 C 140.207031 354.101562 138.746094 353.417969 138.503906 353.214844 C 138.070312 352.851562 137.96875 352.5625 138.550781 352.601562 C 139.167969 352.644531 140.554688 352.992188 141.921875 353.386719 C 148.710938 354.5625 155.765625 356.589844 164.097656 357.65625 C 175.078125 359.484375 186.265625 360.007812 197.445312 359.851562 C 199.722656 359.703125 202.367188 359.597656 204.738281 359.5625 C 206.332031 359.539062 207.914062 359.65625 209.199219 359.757812 C 210.421875 359.851562 210.089844 360.175781 208.542969 360.351562 Z M 60.039062 313.566406 C 59.425781 313.167969 57.550781 311.113281 56.707031 309.953125 C 56.171875 309.21875 55.96875 308.777344 55.617188 308.203125 C 56.285156 308.714844 56.777344 308.976562 57.65625 309.785156 C 58.636719 310.691406 60.597656 313.066406 60.714844 313.484375 C 60.824219 313.878906 60.570312 313.917969 60.039062 313.566406 Z M 11.769531 225.003906 C 11.546875 224.558594 11.355469 224.363281 11.09375 223.597656 C 10.839844 222.871094 10.445312 221.4375 10.386719 220.476562 C 10.285156 219.558594 10.253906 218.179688 10.347656 218.253906 C 10.550781 218.410156 10.828125 219.078125 11.113281 220.082031 C 11.191406 220.554688 11.542969 222.539062 11.730469 223.363281 C 11.867188 224.195312 11.765625 224.480469 11.769531 225.003906 Z M 369.359375 200.84375 C 368.589844 198.96875 368.292969 194.359375 368.3125 187.535156 C 368.316406 186.480469 368.304688 185.242188 368.214844 184.820312 C 368.078125 184.167969 367.882812 183.5 367.679688 184.03125 C 367.480469 184.570312 367.238281 186.507812 367.027344 187.925781 C 366.988281 188.363281 366.925781 189.140625 366.875 189.722656 C 366.550781 197.050781 365.921875 202.660156 364.242188 207.316406 C 363.039062 211.152344 361.871094 214.804688 360.734375 217.71875 C 358.441406 221.996094 356.398438 228.683594 353.015625 237.019531 C 350.367188 243.410156 347.75 249.792969 344.230469 255.84375 C 341.203125 262.140625 337.167969 267.9375 333.386719 274.039062 C 331.609375 277.09375 329.15625 279.695312 327.078125 282.535156 L 322.714844 288.050781 C 322.007812 288.941406 321.125 289.6875 320.34375 290.507812 C 317.964844 292.867188 315.824219 294.558594 315.320312 294.480469 C 314.558594 294.355469 314.253906 293.726562 312.953125 294.214844 C 311.710938 294.648438 309.976562 295.917969 307.6875 297.453125 C 305.328125 298.910156 302.554688 300.785156 299.628906 302.847656 C 295.253906 306.296875 289.445312 309.652344 283.976562 313.71875 C 283.101562 314.425781 282.0625 314.890625 277.851562 317.34375 C 277.222656 317.707031 273.324219 319.960938 269.492188 322.175781 C 262.496094 325.476562 255.621094 329.050781 248.21875 331.371094 C 245.878906 332.195312 243.574219 333.152344 241.214844 333.878906 C 238.8125 334.492188 236.429688 335.101562 234.074219 335.710938 C 232.09375 336.234375 230.269531 336.855469 228.667969 337.410156 C 226.949219 338.039062 226.433594 338.367188 227.035156 338.582031 C 227.515625 338.722656 229.96875 338.363281 232.171875 337.847656 C 232.71875 337.722656 233.300781 337.585938 233.8125 337.46875 C 238.648438 336.207031 243.292969 335.226562 247.605469 333.683594 C 251.917969 332.191406 256.367188 331.4375 260.347656 329.730469 C 261.734375 329.191406 263.257812 328.597656 264.691406 328.039062 C 266.554688 327.324219 266.925781 327.609375 265.242188 328.589844 C 263.691406 329.46875 262.101562 330.367188 260.355469 331.351562 C 258.054688 332.730469 255.28125 333.511719 252.691406 334.210938 C 251.757812 334.433594 250.90625 334.632812 250.023438 334.84375 C 246.023438 335.6875 243.714844 336.84375 240.085938 338.046875 C 235.550781 339.554688 231.15625 341.792969 223.824219 342.832031 C 221.78125 343.140625 219.714844 343.621094 218.242188 344.011719 C 214.777344 345.011719 210.652344 345.621094 205.730469 345.460938 C 200.132812 345.375 195.625 346.160156 191.324219 346.011719 C 186.019531 346.105469 182.441406 346.496094 180.371094 347.097656 C 177.78125 347.988281 172.449219 347.40625 166.09375 346.914062 C 161.722656 346.722656 157.132812 345.480469 152.4375 344.492188 C 148.023438 343.554688 144.464844 342.851562 142.792969 342.695312 C 141.1875 342.65625 138.207031 341.957031 134.875 341.089844 C 131.582031 340.296875 128.554688 339.53125 125.425781 338.285156 C 121.113281 336.617188 116.417969 335.09375 112.117188 333.105469 C 107.859375 331.035156 103.699219 329.046875 99.941406 327.375 C 97.878906 326.5 93.757812 322.761719 93.199219 321.824219 C 92.757812 321.015625 93.246094 320.964844 95.199219 322.136719 C 95.902344 322.582031 96.75 323.125 97.542969 323.625 C 98.734375 324.378906 100.046875 325.320312 101.128906 325.753906 C 101.742188 326.039062 101.9375 325.960938 102.015625 325.855469 C 102.105469 325.746094 99.738281 324.070312 98.542969 323.09375 C 94.058594 319.847656 90.855469 317.921875 88.527344 316.824219 C 86.5 315.90625 84.886719 315.179688 83.542969 314.570312 C 81.742188 313.851562 79.15625 312.179688 74.378906 308.039062 C 72.164062 306.277344 70.371094 304.160156 68.632812 302.589844 C 66.035156 300.125 63.445312 297.53125 60.820312 294.644531 C 58.464844 291.535156 56.101562 288.117188 53.714844 284.25 C 53.035156 283.128906 51.261719 281.042969 50.929688 280.769531 C 49.792969 279.933594 50.199219 282.148438 52.128906 285.148438 C 52.671875 286.03125 53.414062 287.167969 54.078125 288.078125 C 55.535156 290.066406 57.101562 292.21875 58.449219 293.886719 C 61.066406 297.117188 64.257812 300.105469 67.15625 303.238281 C 70.019531 306.414062 73.117188 309.253906 76.207031 311.617188 C 78.152344 313.195312 80.386719 315.066406 82.570312 317.039062 C 98.046875 329.902344 114.527344 338.898438 133.628906 346.5 C 135.902344 347.292969 138.058594 348.042969 140.308594 348.832031 C 141.984375 349.425781 143.792969 350.074219 145.464844 350.507812 C 146.984375 350.964844 149.027344 351.671875 149.523438 351.964844 C 150.042969 352.269531 149.039062 352.230469 148.546875 352.292969 C 148.398438 352.316406 147.804688 352.203125 147.3125 352.105469 C 140.210938 350.820312 133.542969 348.21875 126.4375 346.195312 C 121.324219 344.027344 116.171875 341.851562 111.007812 339.667969 L 96.167969 331.640625 C 93.453125 329.945312 91.054688 328.371094 88.246094 326.417969 C 76.8125 318.558594 67.695312 310.722656 57.65625 299.601562 C 55.601562 297.464844 54.117188 295.441406 52.335938 293.394531 L 45.113281 284.550781 C 42.574219 280.816406 40.03125 276.695312 37.453125 271.949219 C 35.8125 269.214844 34.785156 266.148438 33.4375 263.269531 C 28.769531 253.617188 26.195312 246.460938 23.917969 243.488281 C 23.789062 243.3125 23.671875 243.1875 23.566406 243.09375 C 22.308594 241.984375 20.203125 237.992188 18.460938 231.394531 C 16.605469 225.242188 14.820312 219.46875 13.835938 213.417969 C 12.582031 207.417969 11.375 201.296875 11.121094 194.503906 C 10.867188 190.296875 10.332031 186.4375 10.164062 182.714844 C 10.15625 176.324219 9.960938 169.898438 10.214844 163.5 C 10.871094 157.140625 11.273438 150.710938 12.257812 144.390625 C 12.640625 142.386719 12.777344 140.953125 12.957031 139.457031 C 13.167969 137.710938 12.078125 139.609375 11.195312 142.496094 C 6.773438 159.546875 4.75 176.980469 6.074219 194.105469 C 6.261719 197.554688 6.84375 199.648438 7.273438 198.746094 C 7.664062 197.925781 7.800781 193.3125 7.546875 189.285156 C 7.042969 184.335938 7.335938 179.386719 7.496094 174.425781 C 7.507812 174.027344 7.628906 173.167969 7.703125 172.824219 C 7.777344 172.484375 7.902344 172.203125 7.917969 172.449219 C 8.121094 176.246094 8.316406 179.902344 8.539062 184.0625 C 8.929688 187.078125 9.050781 191.144531 9.023438 195.246094 C 8.992188 199.835938 8.753906 203.582031 8.875 206.664062 C 8.863281 210.511719 8.445312 212.636719 8.902344 218.320312 C 9.449219 225.390625 11.886719 230.429688 13.308594 237.082031 C 14.71875 243.117188 16.605469 246.179688 17.722656 248.027344 C 19.753906 250.710938 20.832031 255.601562 23.335938 261.257812 C 23.789062 262.417969 24.242188 263.589844 24.644531 264.625 C 26.546875 269.871094 28.917969 275.09375 32.34375 280.234375 C 37.539062 289.171875 43.914062 297.335938 50.5 305.613281 C 65.101562 323.261719 82.3125 336.566406 100.804688 346.710938 C 104.488281 349.015625 108.539062 350.867188 112.554688 352.683594 C 115.851562 354.179688 119.183594 355.695312 122.523438 357.214844 L 132.925781 360.890625 C 139.765625 363.578125 146.972656 364.867188 153.746094 366.472656 C 160.191406 367.988281 166.863281 368.269531 173.789062 369.414062 C 191.433594 371.003906 207.925781 370.535156 223.144531 367.238281 C 227.597656 366.3125 232.640625 365.671875 237.324219 364.15625 C 244.429688 362.195312 251.519531 360.273438 258.273438 357.335938 C 261.664062 355.9375 265.148438 354.765625 268.4375 353.152344 L 278.222656 348.15625 C 279.273438 347.582031 280.28125 347.03125 281.171875 346.546875 C 282.039062 346.042969 283.007812 345.519531 283.363281 345.132812 C 283.726562 344.789062 283.835938 344.523438 283.367188 344.667969 C 282.902344 344.855469 281.5625 345.398438 280.539062 345.8125 C 276.039062 347.839844 273.148438 349.628906 269.28125 351.558594 C 266.796875 352.914062 264.050781 353.722656 262.460938 354.078125 C 260.539062 354.496094 260.664062 353.972656 263.128906 352.832031 C 266.222656 351.554688 269.152344 349.648438 272.472656 347.886719 C 276.308594 345.726562 282.0625 343.429688 285.566406 341.597656 C 288.199219 340.441406 290.46875 339.445312 293.058594 338.304688 C 295.40625 337.246094 298.210938 335.75 300.828125 333.589844 C 313.867188 324.125 324.832031 313.085938 335.304688 300.558594 C 337.972656 297.210938 340.203125 293.722656 342.242188 290.683594 C 345.121094 286.566406 347.457031 282.171875 349.695312 277.777344 C 351.996094 273.421875 354.3125 269.140625 355.996094 264.542969 C 356.746094 262.679688 357.222656 261.207031 357.777344 259.621094 C 358.304688 258.132812 357.984375 257.984375 357.113281 259.171875 C 355.859375 260.894531 354.015625 264.023438 353.253906 264.527344 C 352.757812 264.863281 352.726562 264.332031 353.339844 262.621094 C 353.875 261.117188 355.234375 258.359375 356.398438 256.414062 L 358 253.792969 C 361.796875 246.445312 361.6875 246.339844 364.398438 237.394531 C 364.863281 235.898438 365.066406 234.332031 365.425781 232.726562 C 366.898438 225.703125 368.578125 218.695312 369.058594 211.585938 C 369.550781 206.5625 369.96875 202.234375 369.359375 200.84375 "/>
<g clip-path="url(#clip1)" clip-rule="nonzero">
<path style=" stroke:none;fill-rule:nonzero;fill:rgb(34.118652%,48.239136%,85.099792%);fill-opacity:1;" d="M 31.9375 219.046875 C 32.085938 219.109375 32.363281 219.617188 32.621094 220.378906 C 34.023438 224.375 35.144531 229.105469 36.5 234.414062 C 36.621094 235.160156 36.742188 235.914062 36.824219 236.414062 C 36.839844 236.609375 36.664062 236.402344 36.511719 236.09375 C 34.714844 232.761719 33.75 227.984375 32.324219 223.054688 C 32.101562 222.21875 31.855469 220.75 31.789062 220.058594 C 31.71875 219.371094 31.796875 218.980469 31.9375 219.046875 Z M 18.515625 185.097656 C 18.722656 184.621094 19.371094 180.808594 19.460938 178.117188 C 19.699219 171.628906 19.882812 164.914062 20.703125 159.144531 C 21.324219 149.75 23.65625 139.367188 26.867188 128.792969 C 29.433594 121.925781 31.46875 114.984375 34.597656 108.765625 C 36.300781 105.199219 37.996094 101.039062 40.285156 97.347656 C 43.863281 91.71875 47.066406 86.695312 50.335938 83.441406 C 51.488281 82.289062 52.167969 81.898438 52.695312 81.46875 C 53.070312 81.921875 52.40625 83.378906 51.027344 85.644531 C 48.949219 89.53125 46.453125 94.214844 43.34375 99.410156 C 41.289062 102.9375 39.71875 106.890625 38.304688 110.066406 C 35.445312 116.140625 33.558594 122.90625 30.945312 130.160156 C 29.863281 132.855469 29.480469 135.671875 28.902344 138.152344 C 28.132812 141.695312 27.328125 145.414062 26.5 149.222656 C 26 153.082031 25.484375 157.027344 24.972656 160.976562 C 24.316406 164.886719 24.113281 168.882812 24.089844 172.804688 C 24.003906 176.71875 23.890625 180.546875 23.933594 184.140625 C 24.648438 190.464844 24.71875 197.355469 25.753906 203.910156 C 26.402344 207.738281 27.09375 211.796875 27.765625 215.769531 C 28.511719 220.359375 30.070312 224.589844 31.152344 227.980469 C 32.578125 232.707031 34.847656 238.648438 37.085938 243.808594 C 39.253906 249.652344 42.425781 254.882812 45.515625 261.414062 C 47.464844 265.769531 50.179688 269.019531 52.191406 272.027344 C 56.40625 278.382812 61.898438 283.757812 66.640625 289.3125 C 67.78125 290.464844 69.039062 291.390625 69.328125 291.363281 C 70.789062 291.148438 74.90625 294.644531 80.1875 299.445312 C 81.210938 300.234375 82.21875 300.960938 82.914062 301.367188 C 84.085938 302.054688 85.105469 302.578125 85.988281 302.957031 C 86.976562 303.382812 85.992188 301.875 83.929688 299.859375 C 80.484375 296.785156 78.027344 293.035156 75.332031 289.769531 C 73.597656 287.429688 71.773438 285.839844 70.335938 284.097656 C 68.164062 281.707031 65.917969 279.246094 63.46875 276.296875 C 59.402344 271.367188 56.160156 265.746094 53.785156 263.765625 C 53.382812 263.355469 52.335938 262.066406 51.652344 260.78125 C 49.402344 256.59375 47.84375 254.457031 46.121094 251.925781 C 42.824219 247.582031 40.761719 240.992188 38.15625 232.097656 C 37.15625 226.6875 36.265625 223.636719 35.015625 220.1875 C 33.3125 215.910156 32.621094 210.902344 31.355469 206.183594 L 30.746094 203.574219 C 30.230469 201.390625 29.847656 201.074219 29.65625 202.710938 L 29.589844 203.648438 C 29.210938 207.691406 29.011719 207.472656 27.742188 200.628906 C 27.339844 196.527344 26.9375 192.488281 26.546875 188.460938 C 25.628906 176.859375 25.863281 165.347656 28.144531 151.800781 C 29.101562 146.128906 30.496094 140.996094 31.605469 135.640625 C 32.648438 130.835938 34.460938 126.484375 35.9375 121.65625 C 37.046875 117.839844 38.632812 114.375 40.1875 110.9375 C 41.769531 107.515625 43.113281 104.003906 44.902344 100.675781 C 48.589844 94.132812 52.679688 86.808594 57.527344 80.570312 C 59.484375 77.863281 61.050781 75.210938 63.128906 72.761719 C 64.867188 70.714844 66.574219 68.695312 68.382812 66.5625 C 79.621094 53.941406 92.699219 42.488281 107.265625 33.851562 C 122.640625 24.46875 139.824219 16.964844 156.914062 12.8125 C 162.679688 11.125 168.734375 10.40625 174.816406 9.195312 C 180.9375 8.234375 187.273438 8.105469 193.742188 7.632812 C 210.507812 7.832031 225.574219 8.523438 241.015625 12.59375 C 247.878906 13.945312 253.265625 15.738281 257.378906 16.558594 C 258.339844 16.753906 259.035156 16.804688 259.277344 16.683594 C 259.398438 16.625 257.964844 15.816406 257.617188 15.6875 C 249.011719 12.214844 239.753906 9.941406 230.476562 7.527344 C 227.386719 6.984375 224.195312 6.496094 221.351562 6.128906 C 216.566406 5.402344 211.722656 4.816406 206.734375 4.640625 C 201.765625 4.457031 196.691406 3.535156 191.460938 3.699219 L 187.640625 3.71875 C 183.28125 3.839844 179.109375 3.789062 175.242188 4.308594 C 171.382812 4.90625 167.789062 5.570312 164.5 6.296875 C 162.128906 6.898438 159.863281 7.230469 157.582031 8.027344 C 153.113281 9.496094 148.023438 10.816406 142.03125 11.953125 L 136.820312 13.398438 C 131.976562 14.886719 127.027344 16.21875 122.652344 18.445312 C 117.992188 20.835938 113.058594 23.261719 108.9375 25.597656 C 101.523438 30.53125 93.515625 35.265625 84.8125 41.707031 C 79.875 44.839844 75.820312 48.953125 71.785156 52.628906 C 56.871094 67.140625 44.304688 84.597656 35.90625 102.445312 C 34.191406 106.230469 32.375 110.246094 30.519531 114.34375 C 29.027344 118.578125 27.503906 122.902344 26.003906 127.152344 C 24.046875 132.09375 22.582031 137.027344 22.191406 135.605469 C 22.113281 135.136719 22.226562 134.0625 22.199219 133.433594 C 22.171875 132.851562 21.414062 134.515625 20.921875 136.191406 C 20.566406 137.414062 20.183594 138.742188 19.859375 139.847656 C 17.378906 148.316406 16.910156 156.65625 16.425781 162.863281 C 16.117188 167.210938 16.589844 171.757812 16.539062 176.855469 C 16.496094 183.90625 17.53125 186.503906 18.515625 185.097656 "/>
</g>
<path style=" stroke:none;fill-rule:nonzero;fill:rgb(34.118652%,48.239136%,85.099792%);fill-opacity:1;" d="M 237.792969 27.378906 C 236.90625 27.195312 236.402344 27.207031 235.707031 27.117188 C 234.613281 26.976562 235.816406 27.828125 237.542969 28.40625 C 238.574219 28.75 239.617188 29.097656 241.335938 29.664062 C 243.453125 30.101562 246.019531 31.34375 248.667969 32.28125 C 255.121094 34.660156 259.738281 36.214844 260.859375 35.933594 C 261.386719 35.742188 263.039062 36.339844 266.046875 37.917969 C 270.015625 40.003906 273.160156 41.359375 274.730469 41.894531 C 276.382812 42.320312 279.035156 43.570312 282.425781 45.355469 C 287.886719 47.882812 292.339844 51.308594 297.3125 54.363281 C 299.628906 55.753906 301.632812 57.140625 303.941406 59.226562 C 309.007812 63.691406 312.976562 66.394531 316.46875 69.875 C 318.816406 72.027344 321.3125 74.460938 323.976562 77.214844 C 326.417969 80.152344 328.914062 83.503906 331.613281 87.183594 C 338.351562 96.84375 343.78125 106.8125 348.355469 115.761719 C 349.34375 117.441406 350.269531 119.519531 350.984375 121.660156 C 352.585938 125.984375 354.078125 129.601562 355.628906 133.355469 C 358.070312 141.382812 361.003906 149.316406 362.066406 159.761719 C 362.519531 162.5 362.980469 165.253906 363.355469 167.511719 C 364.035156 173.667969 364.847656 178.351562 365.699219 182.519531 C 366 183.996094 366.417969 184.375 366.484375 182.929688 C 366.554688 181.394531 366.613281 179.484375 366.570312 177.859375 C 366.308594 172.964844 366.46875 168.195312 365.6875 163.636719 C 364.929688 159.082031 364.191406 154.644531 363.460938 150.25 C 358.519531 127.613281 348.992188 106.019531 334.9375 86.332031 C 330.980469 81.367188 327.761719 76.460938 323.675781 72.707031 C 319.417969 68.515625 315.148438 63.628906 309.660156 58.929688 C 303.660156 52.984375 297.324219 48.855469 291.644531 45.042969 C 288.378906 42.789062 284.5625 40.957031 280.472656 38.28125 C 277.246094 36.210938 274.582031 34.890625 273.433594 34.878906 C 270.253906 34.621094 265.097656 33.191406 260.390625 32 C 257.457031 31.46875 254.558594 30.941406 250.988281 30.292969 C 247.457031 29.574219 243.390625 28.359375 237.792969 27.378906 "/>
<path style=" stroke:none;fill-rule:nonzero;fill:rgb(34.118652%,48.239136%,85.099792%);fill-opacity:1;" d="M 107.183594 313.644531 C 105.96875 312.464844 105.558594 311.648438 106.492188 312.121094 C 108.566406 313.324219 111.613281 314.484375 112.785156 314.644531 C 114.339844 314.761719 114.949219 314.347656 110.238281 310.796875 C 107.996094 308.867188 107 307.507812 105.90625 306.195312 C 105.429688 305.617188 104.304688 304.578125 103.320312 303.683594 C 102.585938 303.015625 100.519531 301.699219 99.78125 301.613281 C 99.515625 301.589844 99.28125 301.585938 98.890625 301.441406 C 97.804688 301.035156 95.453125 298.941406 93.910156 297.269531 C 91.09375 294.035156 88.105469 291.128906 85.738281 287.574219 C 84.144531 285.410156 82.171875 283.335938 81.265625 282.875 C 80.480469 282.511719 79.789062 282.183594 79.015625 281.824219 C 78.539062 281.664062 76.792969 279.589844 76.382812 278.6875 C 75.46875 276.953125 74.617188 275.328125 73.703125 273.589844 C 72.761719 271.738281 70.902344 269.347656 69.539062 267.5 C 67.835938 265.0625 66.492188 263.839844 64.390625 260.132812 C 61.769531 255.671875 62.230469 254.609375 61.269531 251.5625 L 60.867188 250.34375 C 60.554688 249.335938 59.410156 246.792969 59.039062 246.351562 C 58.183594 245.3125 57.253906 244.054688 56.230469 242.472656 C 55.382812 240.820312 54.457031 238.839844 53.429688 236.441406 C 52.394531 234.027344 51.453125 232.460938 50.445312 230.421875 C 49.71875 229.074219 49.289062 227.542969 48.714844 226.007812 C 48.082031 224.167969 47.246094 220.109375 47.273438 218.960938 C 47.335938 218.246094 47.378906 217.769531 47.441406 217.054688 C 47.457031 216.320312 47.472656 215.511719 47.351562 214.390625 C 47.324219 213.894531 47.089844 211.960938 46.964844 211.589844 C 45.632812 207.378906 44.867188 208.550781 45.0625 214.417969 C 45.523438 218.1875 46.328125 222.191406 47.429688 226.625 C 49.046875 232.90625 51.710938 238.847656 53.660156 242.96875 C 53.9375 243.597656 54.460938 244.375 54.882812 245.179688 C 55.824219 246.875 56.796875 248.90625 57.535156 250.824219 C 58.785156 254.09375 59.804688 257.324219 61.460938 260.355469 C 62.394531 262.25 63.519531 264.179688 64.621094 265.8125 C 65.699219 267.339844 66.644531 268.671875 67.707031 270.179688 C 70.527344 273.527344 72.929688 277.089844 74.210938 279.796875 C 75.007812 281.628906 75.816406 283.210938 76.914062 284.945312 C 77.175781 285.363281 78.433594 286.871094 78.863281 287.273438 C 80.734375 289 82.351562 290.492188 84.222656 292.214844 C 87.480469 295.203125 94.574219 301.652344 94.714844 303.511719 C 94.828125 305.4375 94.925781 307.074219 95.027344 308.777344 C 95.097656 310.230469 98.152344 312.941406 104.511719 317.191406 C 106.570312 318.429688 109.046875 319.691406 110.496094 320.328125 C 113.835938 321.644531 117.394531 323.515625 120.761719 324.554688 C 124.144531 325.582031 127.039062 326.320312 128.617188 326.253906 C 124.25 323.929688 120.042969 322.277344 116.210938 319.832031 C 112.761719 317.824219 109.6875 315.75 107.183594 313.644531 "/>
<path style=" stroke:none;fill-rule:nonzero;fill:rgb(34.118652%,48.239136%,85.099792%);fill-opacity:1;" d="M 128.617188 326.253906 L 129.175781 326.519531 L 128.804688 326.277344 C 128.761719 326.269531 128.664062 326.261719 128.617188 326.253906 "/>
<path style=" stroke:none;fill-rule:nonzero;fill:rgb(34.118652%,48.239136%,85.099792%);fill-opacity:1;" d="M 129.175781 326.519531 L 128.996094 326.363281 L 128.792969 326.269531 Z M 129.175781 326.519531 "/>
<path style=" stroke:none;fill-rule:nonzero;fill:rgb(34.118652%,48.239136%,85.099792%);fill-opacity:1;" d="M 153.59375 334.996094 C 159.410156 336.855469 164.070312 338.039062 168.390625 338.070312 C 171.214844 338.210938 174.164062 338.355469 176.625 338.480469 C 179.335938 338.546875 179.355469 338.054688 177.621094 337.246094 C 176.089844 336.53125 173.753906 335.882812 169.953125 335.320312 C 167.269531 334.84375 164.640625 334.605469 162.21875 333.609375 C 159.410156 332.648438 156.574219 331.679688 153.644531 330.679688 C 151.1875 329.984375 148.558594 329.019531 146.175781 328.011719 L 136.457031 324.40625 C 133.320312 322.996094 130.265625 321.402344 127.179688 319.929688 C 125.246094 319 123.761719 318.503906 123.109375 318.5 C 121.25 318.476562 121 319.296875 123.542969 321.492188 C 125.4375 323.183594 127.1875 324.746094 128.996094 326.363281 C 133.355469 328.730469 137.777344 330.121094 141.648438 331.210938 C 145.1875 332.332031 149.214844 333.605469 153.59375 334.996094 "/>
<path style=" stroke:none;fill-rule:nonzero;fill:rgb(34.118652%,48.239136%,85.099792%);fill-opacity:1;" d="M 42.65625 268.003906 C 40.285156 264.96875 37.90625 260.503906 35.03125 255.238281 C 33.8125 253.042969 32.863281 251.652344 32.066406 250.007812 C 31.746094 249.398438 31.484375 249.128906 31.375 249.230469 C 31.273438 249.320312 31.285156 249.851562 31.472656 250.648438 C 31.671875 251.4375 32.070312 252.816406 32.582031 253.878906 C 32.832031 254.394531 33.160156 255.078125 33.363281 255.503906 C 36.703125 261.328125 39.585938 267.480469 43.472656 272.660156 C 46.058594 276.371094 46.429688 275.09375 44.359375 270.875 C 43.773438 269.886719 42.917969 268.320312 42.65625 268.003906 "/>
<path style=" stroke:none;fill-rule:nonzero;fill:rgb(34.118652%,48.239136%,85.099792%);fill-opacity:1;" d="M 21.796875 211.234375 C 21.320312 209.707031 20.910156 209.4375 20.492188 208.792969 C 20.261719 208.441406 20.296875 210.84375 20.507812 212.347656 C 21.191406 218.527344 22.8125 223.917969 24.394531 229.257812 C 24.664062 230.195312 24.996094 230.972656 25.195312 231.269531 C 25.984375 232.472656 26.273438 231.625 26.046875 228.816406 C 25.996094 228.183594 25.707031 226.535156 25.480469 225.675781 C 23.730469 219.851562 22.8125 214.582031 21.796875 211.234375 "/>
<path style=" stroke:none;fill-rule:nonzero;fill:rgb(34.118652%,48.239136%,85.099792%);fill-opacity:1;" d="M 249.113281 23.992188 C 249.78125 24.167969 249.769531 23.980469 250.070312 23.960938 C 249.898438 23.519531 245.996094 21.28125 243.011719 20.722656 L 230.183594 17.625 C 225.5 16.824219 224.410156 17.484375 228.359375 18.59375 C 229.542969 18.898438 231.636719 19.742188 232.902344 20.019531 C 238.816406 21.632812 244.714844 22.550781 249.113281 23.992188 "/>
<path style=" stroke:none;fill-rule:nonzero;fill:rgb(34.118652%,48.239136%,85.099792%);fill-opacity:1;" d="M 29.796875 162.988281 C 29.757812 162.613281 29.53125 162.847656 29.339844 163.421875 C 29.140625 164.023438 28.757812 165.617188 28.667969 166.339844 C 28.519531 172.199219 28.367188 178.011719 28.222656 183.710938 C 28.394531 186.089844 28.914062 187.179688 29.183594 185.859375 C 29.324219 185.183594 29.363281 183.503906 29.605469 182.503906 C 29.671875 180.90625 29.722656 179.640625 29.761719 178.742188 C 29.769531 174.445312 29.617188 170.132812 29.757812 165.988281 C 29.871094 164.6875 29.855469 163.683594 29.796875 162.988281 "/>
<path style=" stroke:none;fill-rule:nonzero;fill:rgb(34.118652%,48.239136%,85.099792%);fill-opacity:1;" d="M 201.777344 13.417969 C 198.625 13.074219 194.816406 12.898438 193.765625 13.503906 C 193.300781 13.707031 193.097656 13.917969 192.859375 14.074219 C 193.035156 14.257812 193.109375 14.394531 193.292969 14.527344 C 193.910156 14.816406 198.46875 15.449219 201.25 15.429688 C 203.460938 15.402344 205.621094 15.328125 207.101562 15.167969 C 209.5 14.90625 206.695312 14.019531 201.777344 13.417969 "/>
<path style=" stroke:none;fill-rule:nonzero;fill:rgb(34.118652%,48.239136%,85.099792%);fill-opacity:1;" d="M 191.589844 29.585938 C 192.605469 29.808594 195.421875 29.773438 197.335938 29.9375 C 198.757812 29.972656 200.230469 29.988281 201.28125 29.929688 C 203.300781 29.8125 203.332031 29.46875 202.253906 29.023438 C 201.113281 28.554688 198.734375 28.132812 196.070312 27.910156 C 195.0625 27.8125 193.835938 27.953125 193.085938 28.019531 C 189.769531 28.457031 189.234375 29.121094 191.589844 29.585938 "/>
<path style=" stroke:none;fill-rule:nonzero;fill:rgb(34.118652%,48.239136%,85.099792%);fill-opacity:1;" d="M 45.09375 183.746094 C 45.214844 185.925781 45.488281 187.796875 45.828125 188.660156 C 46.015625 189.132812 46.253906 188.863281 46.429688 188.367188 C 46.703125 187.71875 46.636719 185.09375 46.714844 183.023438 C 46.875 180.378906 46.9375 177.972656 46.8125 176.167969 C 46.765625 175.523438 46.632812 175.324219 46.5 174.765625 C 46.300781 175.398438 46.03125 175.839844 45.828125 176.960938 C 45.453125 179.070312 45.195312 181.5625 45.09375 183.746094 "/>
<path style=" stroke:none;fill-rule:nonzero;fill:rgb(34.118652%,48.239136%,85.099792%);fill-opacity:1;" d="M 327.433594 93.410156 C 327.929688 93.984375 328.273438 94.175781 328.476562 94.300781 C 328.917969 94.535156 329.253906 94.574219 329.625 94.691406 C 329.566406 94.167969 329.671875 93.863281 329.425781 93.128906 C 329.269531 92.726562 328.578125 91.636719 328.054688 90.796875 C 327.875 90.515625 327.382812 89.914062 327.164062 89.691406 C 324.96875 87.445312 323.644531 86.550781 323.417969 87.382812 C 323.355469 87.621094 324.039062 89.0625 324.871094 90.203125 C 325.742188 91.386719 326.675781 92.535156 327.433594 93.410156 "/>
<path style=" stroke:none;fill-rule:nonzero;fill:rgb(34.118652%,48.239136%,85.099792%);fill-opacity:1;" d="M 167.140625 15.414062 C 169.1875 15.203125 171.433594 14.621094 171.539062 14.296875 C 171.875 13.933594 170.804688 13.738281 168.789062 13.722656 C 167.695312 13.710938 165.988281 13.816406 164.390625 13.953125 C 162.65625 14.109375 160.503906 14.6875 160.320312 15.039062 C 160.101562 15.445312 160.457031 15.6875 162.628906 15.707031 C 163.746094 15.703125 165.550781 15.578125 167.140625 15.414062 "/>
<path style=" stroke:none;fill-rule:nonzero;fill:rgb(34.118652%,48.239136%,85.099792%);fill-opacity:1;" d="M 44.648438 107.875 C 44.371094 108.191406 43.613281 109.390625 43.230469 110.15625 C 40.34375 115.695312 38.683594 120.0625 38.703125 122.347656 C 38.6875 122.703125 38.988281 122.359375 39.210938 122.140625 C 39.308594 122.050781 39.585938 121.449219 39.78125 121.082031 C 40.003906 120.558594 40.3125 119.832031 40.429688 119.550781 C 41.777344 115.6875 43.433594 111.9375 44.878906 108.261719 C 45.101562 107.699219 44.933594 107.550781 44.648438 107.875 "/>
<path style=" stroke:none;fill-rule:nonzero;fill:rgb(34.118652%,48.239136%,85.099792%);fill-opacity:1;" d="M 206.003906 33.503906 C 205.882812 33.804688 207.476562 34.222656 209.34375 34.382812 C 211.964844 34.625 214.332031 35 214.785156 34.660156 C 215.226562 34.402344 213.035156 33.585938 210.472656 33.148438 C 208.023438 32.957031 206.167969 33.101562 206.003906 33.503906 "/>
<path style=" stroke:none;fill-rule:nonzero;fill:rgb(34.118652%,48.239136%,85.099792%);fill-opacity:1;" d="M 49.699219 157.585938 C 49.992188 156.09375 50.085938 154.582031 49.898438 154.371094 C 49.628906 154.074219 49.148438 155.3125 48.722656 157.375 C 48.433594 158.78125 48.335938 160.339844 48.527344 160.550781 C 48.804688 160.851562 49.296875 159.613281 49.699219 157.585938 "/>
<path style=" stroke:none;fill-rule:nonzero;fill:rgb(34.118652%,48.239136%,85.099792%);fill-opacity:1;" d="M 136.855469 26.613281 C 138.960938 25.9375 140.515625 25.128906 140.140625 24.953125 C 139.679688 24.863281 138.617188 25.058594 136.804688 25.640625 C 134.625 26.339844 133.023438 27.160156 133.566406 27.300781 C 133.945312 27.394531 135.042969 27.195312 136.855469 26.613281 "/>
<path style=" stroke:none;fill-rule:nonzero;fill:rgb(34.118652%,48.239136%,85.099792%);fill-opacity:1;" d="M 87.910156 51.027344 C 88.074219 50.699219 86.921875 51.132812 85.679688 52.136719 C 83.964844 53.550781 82.535156 55.066406 82.875 55.183594 C 82.996094 55.222656 83.660156 54.847656 84.320312 54.363281 C 85.792969 53.21875 87.65625 51.492188 87.910156 51.027344 "/>
<path style=" stroke:none;fill-rule:nonzero;fill:rgb(34.118652%,48.239136%,85.099792%);fill-opacity:1;" d="M 51.0625 144.136719 C 51.546875 142.652344 51.722656 141.289062 51.457031 141.410156 C 51.191406 142.03125 50.902344 142.550781 50.660156 143.292969 C 50.183594 144.773438 49.953125 146.339844 50.28125 145.957031 C 50.441406 145.761719 50.824219 144.878906 51.0625 144.136719 "/>
<path style=" stroke:none;fill-rule:nonzero;fill:rgb(34.118652%,48.239136%,85.099792%);fill-opacity:1;" d="M 53.714844 250.015625 C 53.628906 250.347656 54.183594 251.960938 54.859375 253.347656 C 55.535156 254.742188 56.160156 255.609375 56.238281 255.273438 C 56.324219 254.9375 55.769531 253.3125 55.097656 251.933594 C 54.410156 250.523438 53.804688 249.679688 53.714844 250.015625 "/>
<path style=" stroke:none;fill-rule:nonzero;fill:rgb(34.118652%,48.239136%,85.099792%);fill-opacity:1;" d="M 39.957031 182.839844 C 39.859375 183.640625 40.011719 184.707031 40.121094 185.015625 C 40.394531 185.734375 40.542969 184.730469 40.605469 183.296875 C 40.660156 182.496094 40.585938 181.800781 40.574219 181.058594 C 40.371094 180.554688 40.054688 181.390625 39.957031 182.839844 "/>
<path style=" stroke:none;fill-rule:nonzero;fill:rgb(34.118652%,48.239136%,85.099792%);fill-opacity:1;" d="M 126.242188 44.285156 C 125.492188 44.527344 124.765625 44.699219 123.992188 45.027344 C 122.5 45.660156 121.238281 46.484375 121.847656 46.429688 C 122.164062 46.40625 123.257812 46.046875 124.03125 45.722656 C 125.558594 45.074219 126.589844 44.367188 126.242188 44.285156 "/>
<path style=" stroke:none;fill-rule:nonzero;fill:rgb(34.118652%,48.239136%,85.099792%);fill-opacity:1;" d="M 154.066406 29.75 C 153.953125 29.578125 152.320312 29.753906 150.808594 30.144531 C 149.089844 30.582031 148.335938 30.917969 148.414062 31.125 C 148.496094 31.332031 150.148438 31.152344 151.660156 30.761719 C 153.355469 30.324219 154.109375 29.992188 154.066406 29.75 "/>
<path style=" stroke:none;fill-rule:nonzero;fill:rgb(34.118652%,48.239136%,85.099792%);fill-opacity:1;" d="M 110.609375 329.765625 L 112.15625 331.113281 C 112.863281 331.472656 113.972656 332.101562 114.195312 332.125 C 114.71875 332.179688 113.136719 330.851562 112.050781 330.285156 C 111.359375 329.917969 111.078125 329.925781 110.609375 329.765625 "/>
<path style=" stroke:none;fill-rule:nonzero;fill:rgb(34.118652%,48.239136%,85.099792%);fill-opacity:1;" d="M 113.464844 52.203125 C 112.699219 52.558594 111.824219 52.894531 111.203125 53.261719 C 110.535156 53.660156 109.742188 54.269531 109.644531 54.453125 C 109.457031 54.800781 111.644531 53.792969 112.679688 53.054688 C 113.222656 52.664062 113.21875 52.480469 113.464844 52.203125 "/>
<path style=" stroke:none;fill-rule:nonzero;fill:rgb(34.118652%,48.239136%,85.099792%);fill-opacity:1;" d="M 46.871094 138.871094 C 46.625 139.476562 46.390625 140.066406 46.136719 140.707031 L 46.023438 141.550781 C 46.171875 141.386719 46.386719 140.976562 46.574219 140.667969 L 46.871094 138.871094 "/>
<path style=" stroke:none;fill-rule:nonzero;fill:rgb(34.118652%,48.239136%,85.099792%);fill-opacity:1;" d="M 78.207031 94.785156 C 78.105469 94.832031 77.65625 95.25 77.65625 95.25 C 77.242188 95.832031 76.640625 96.640625 76.550781 96.878906 C 76.386719 97.296875 76.882812 96.832031 77.578125 95.992188 C 78.253906 95.113281 78.496094 94.667969 78.207031 94.785156 "/>
<path style=" stroke:none;fill-rule:nonzero;fill:rgb(34.118652%,48.239136%,85.099792%);fill-opacity:1;" d="M 351.949219 131.210938 C 351.96875 131.421875 352.078125 131.914062 352.199219 132.34375 C 352.699219 133.96875 353.246094 135.371094 353.394531 135.28125 C 353.347656 134.574219 353.238281 133.941406 353.027344 133.214844 C 352.558594 131.710938 351.894531 130.515625 351.949219 131.210938 "/>
<path style=" stroke:none;fill-rule:nonzero;fill:rgb(34.118652%,48.239136%,85.099792%);fill-opacity:1;" d="M 115.09375 57.515625 L 115.894531 57.1875 L 116.003906 56.953125 Z M 115.09375 57.515625 "/>
<path style=" stroke:none;fill-rule:nonzero;fill:rgb(34.118652%,48.239136%,85.099792%);fill-opacity:1;" d="M 328.507812 242.089844 C 328.320312 242.453125 328.003906 243.066406 327.988281 243.097656 C 327.957031 243.132812 328.183594 242.625 328.292969 242.351562 L 328.847656 241.269531 Z M 328.242188 246.160156 C 327.96875 246.90625 327.582031 247.941406 327.226562 248.914062 C 326.410156 250.398438 325.453125 252.140625 324.882812 253.175781 C 324.570312 253.710938 324.832031 253.003906 325.015625 252.484375 C 325.207031 251.960938 326.425781 249.34375 326.953125 248.3125 C 327.375 247.496094 327.777344 246.746094 327.992188 246.390625 C 328.207031 246.027344 328.347656 245.847656 328.242188 246.160156 Z M 312.808594 263.546875 C 312.632812 263.757812 312.269531 264.199219 312.328125 264.109375 C 312.722656 263.585938 313.125 262.890625 313.492188 262.222656 C 313.640625 262.019531 313.953125 261.550781 313.902344 261.648438 C 313.585938 262.207031 313.199219 262.914062 312.808594 263.546875 Z M 310.644531 274.707031 C 310.476562 274.949219 309.777344 275.9375 309.316406 276.597656 C 308.992188 276.996094 308.644531 277.382812 308.265625 277.734375 C 308.644531 277.292969 308.917969 276.878906 309.3125 276.289062 C 309.429688 276.136719 310.140625 275.195312 310.199219 275.121094 C 310.449219 274.847656 310.796875 274.453125 310.644531 274.707031 Z M 304.085938 270.671875 C 303.1875 272.011719 301.6875 273.542969 301.804688 273.300781 C 302.125 272.859375 303.1875 271.382812 305.027344 268.828125 C 305.339844 268.414062 305.867188 267.714844 306.027344 267.5 C 306.472656 266.957031 307.117188 266.167969 307.074219 266.277344 C 306.9375 266.65625 306.035156 268.011719 304.085938 270.671875 Z M 306.601562 273.015625 C 306.371094 273.394531 306.28125 273.636719 305.644531 274.5625 C 304.976562 275.378906 303.636719 276.898438 302.621094 278.011719 C 301.609375 279.121094 300.015625 280.804688 299.769531 281.003906 C 299.210938 281.46875 299.015625 281.507812 299.226562 281.117188 C 299.5625 280.5 301.933594 277.722656 303.804688 275.726562 C 306.078125 273.398438 306.347656 272.78125 306.601562 272.757812 C 306.675781 272.734375 306.609375 272.898438 306.601562 273.015625 Z M 287.648438 292.648438 C 287.214844 293.15625 286.425781 293.824219 285.679688 294.304688 C 285.445312 294.460938 285.640625 294.277344 285.640625 294.253906 C 286.210938 293.792969 286.867188 293.222656 287.277344 292.8125 C 289.890625 290.476562 288.011719 292.261719 287.648438 292.648438 Z M 269.4375 69.582031 C 269.152344 69.394531 268.90625 69.214844 268.992188 69.25 C 269.28125 69.371094 270.042969 69.820312 270.910156 70.375 C 271.203125 70.5625 271.257812 70.621094 271.421875 70.742188 C 271.003906 70.542969 270.300781 70.128906 269.4375 69.582031 Z M 235.539062 57.65625 C 235.707031 57.699219 235.878906 57.746094 236.046875 57.785156 C 236.753906 57.980469 237.460938 58.167969 238.164062 58.355469 C 238.609375 58.523438 239.042969 58.6875 239.484375 58.851562 C 238.179688 58.429688 236.859375 58.039062 235.539062 57.65625 Z M 220.914062 54.304688 L 221.828125 54.441406 C 223.726562 54.726562 225.621094 54.988281 227.453125 55.542969 C 227.941406 55.667969 228.4375 55.796875 228.921875 55.925781 C 226.28125 55.308594 223.613281 54.765625 220.914062 54.304688 Z M 207.257812 52.695312 C 210.234375 52.832031 213.210938 52.996094 216.140625 53.570312 L 216.488281 53.625 C 213.445312 53.210938 210.367188 52.898438 207.257812 52.695312 Z M 164.0625 55.617188 C 163.734375 55.769531 162.113281 56.242188 160.484375 56.660156 C 158.222656 57.160156 156.550781 57.757812 156.496094 57.675781 C 156.46875 57.636719 157.003906 57.398438 157.824219 57.070312 C 158.65625 56.777344 159.8125 56.503906 160.972656 56.207031 C 163.214844 55.648438 164.539062 55.398438 164.0625 55.617188 Z M 162.746094 53.839844 L 162.222656 54.011719 L 161.664062 54.117188 Z M 144.886719 58.785156 C 144.59375 58.875 144.316406 58.996094 144.042969 59.125 C 144.351562 58.960938 144.667969 58.820312 144.996094 58.707031 Z M 133.546875 67.488281 C 131.089844 68.988281 128.585938 70.515625 126.179688 71.980469 C 124.644531 72.949219 123.113281 73.691406 121.828125 74.683594 C 120.757812 75.460938 120.828125 75.378906 121.960938 74.515625 C 125.710938 71.992188 129.601562 69.703125 133.671875 67.242188 C 134.085938 67.023438 134.761719 66.75 134.695312 66.785156 C 134.445312 66.941406 134.039062 67.1875 133.546875 67.488281 Z M 94.949219 98.9375 C 94.746094 99.15625 94.355469 99.582031 94.046875 99.914062 L 94.285156 99.578125 L 95.21875 98.570312 C 95.136719 98.683594 95.144531 98.714844 94.949219 98.9375 Z M 64.761719 177.878906 C 64.746094 178.125 64.71875 178.367188 64.707031 178.613281 L 64.6875 178.597656 L 64.773438 177.402344 Z M 290.636719 82.691406 C 292 83.828125 293.609375 85.167969 295.445312 86.695312 C 297.324219 88.1875 299.027344 90.269531 301.097656 92.363281 C 302.410156 93.78125 304.042969 95.546875 305.554688 97.179688 C 305.328125 97.019531 305.375 97.179688 304.722656 96.511719 C 303.011719 94.746094 301.097656 92.769531 299.042969 90.640625 C 297.992188 89.597656 297.019531 88.410156 295.824219 87.386719 C 294.644531 86.351562 293.429688 85.289062 292.195312 84.203125 C 291.894531 83.925781 291.289062 83.367188 291.003906 83.105469 C 290.738281 82.847656 290.492188 82.582031 290.636719 82.691406 Z M 322.773438 125.941406 C 322.925781 126.152344 323.113281 126.4375 323.351562 126.84375 C 324.042969 128.15625 325.265625 129.902344 326.785156 133.789062 C 328.199219 137.589844 329.597656 141.355469 330.996094 145.117188 C 330.875 145.039062 330.371094 144.097656 328.878906 140.019531 C 327 134.917969 325.777344 131.695312 324.117188 128.882812 C 323.640625 127.992188 323.121094 126.90625 322.808594 126.160156 C 322.695312 125.886719 322.707031 125.839844 322.773438 125.941406 Z M 330.566406 148.011719 C 330.265625 147.324219 330.054688 145.933594 329.292969 143.980469 C 329.117188 143.390625 328.703125 142.125 328.800781 142.324219 C 329.046875 142.835938 329.464844 143.832031 329.933594 145.003906 C 330.089844 145.4375 330.542969 147.363281 330.652344 147.871094 C 330.761719 148.40625 330.703125 148.410156 330.566406 148.011719 Z M 323.8125 130.828125 C 323.632812 130.4375 323.394531 129.882812 323.4375 129.945312 C 323.550781 130.132812 323.820312 130.589844 324.023438 130.9375 L 324.808594 132.78125 C 324.730469 132.707031 324.375 132.042969 323.8125 130.828125 Z M 331.882812 156.585938 L 332.070312 157.480469 L 331.703125 156.074219 Z M 321.765625 245.796875 C 322.046875 245.199219 322.707031 243.796875 323.074219 243.007812 C 323.46875 242.21875 323.964844 241.292969 324.042969 241.207031 C 324.363281 240.871094 323.777344 242.339844 322.375 245.417969 C 322.183594 245.816406 321.792969 246.632812 321.667969 246.890625 C 321.300781 247.570312 321.035156 248.0625 320.722656 248.636719 C 320.640625 248.550781 320.910156 247.761719 321.765625 245.796875 Z M 332.964844 234.019531 C 333.574219 232.167969 334.34375 230.210938 334.988281 228.027344 C 335.550781 225.820312 336.15625 223.433594 336.816406 220.839844 C 337.414062 218.519531 337.84375 216.675781 338.140625 215.273438 C 338.375 213.859375 338.394531 212.875 338.414062 212.308594 C 338.417969 211.660156 338.1875 212.609375 337.808594 214.636719 C 336.980469 217.671875 335.984375 221.453125 335.300781 224.527344 C 335.003906 225.894531 334.769531 226.960938 334.484375 228.269531 C 334.410156 228.648438 334.042969 229.59375 333.9375 229.890625 C 333.59375 230.769531 333.128906 231.960938 333.027344 232.128906 C 332.429688 233.050781 333.070312 231.332031 334.222656 227.101562 C 335.476562 221.195312 337.285156 215.210938 337.789062 209.113281 C 338.007812 207.382812 338.003906 206.609375 337.789062 207.472656 C 337.570312 208.363281 337.375 209.074219 337.097656 210.378906 C 336.792969 211.789062 336.488281 213.226562 336.164062 214.726562 C 335.710938 216.203125 335.242188 217.742188 334.742188 219.375 C 334.253906 221.007812 333.742188 222.738281 333.183594 224.597656 C 332.914062 225.523438 332.636719 226.488281 332.339844 227.484375 C 332.027344 228.476562 331.582031 229.46875 331.183594 230.515625 C 329.617188 234.335938 328.292969 238.292969 326.484375 242.050781 C 324.570312 245.757812 322.734375 249.511719 320.753906 253.152344 C 319.640625 254.890625 318.492188 256.6875 317.445312 258.320312 C 316.042969 260.488281 315.097656 261.84375 315.199219 261.453125 C 315.414062 260.628906 315.851562 259.449219 316.289062 258.261719 C 316.359375 258.074219 316.796875 257.253906 317.277344 256.425781 C 319.835938 252.414062 321.53125 248.292969 323.4375 244.160156 C 325.507812 240.089844 326.847656 235.589844 328.648438 230.683594 C 329.136719 229.273438 329.644531 227.992188 329.992188 226.777344 C 330.28125 225.546875 330.550781 224.421875 330.792969 223.394531 C 331.269531 221.339844 331.621094 219.671875 331.863281 218.328125 C 332.0625 216.875 332.898438 214.339844 333.171875 211.449219 C 333.402344 209.777344 333.628906 208.09375 333.839844 206.539062 C 334.125 204.347656 334.132812 203.167969 333.855469 204.414062 C 333.613281 205.558594 333.390625 206.597656 333.054688 208.160156 C 332.574219 210.34375 332.3125 212.628906 331.636719 214.847656 C 330.972656 217.066406 330.308594 219.304688 329.644531 221.523438 C 328.820312 224.292969 328.828125 223.902344 329.742188 219.855469 C 329.851562 219.398438 329.980469 218.835938 330.085938 218.382812 C 330.796875 215.214844 330.980469 213.800781 329.699219 218.316406 C 329.292969 219.722656 328.796875 221.5 328.832031 221.058594 C 328.863281 220.683594 329.136719 219.410156 329.320312 218.46875 C 329.472656 217.699219 329.425781 217.683594 329.089844 218.921875 C 328.671875 220.496094 328.214844 222.21875 327.773438 223.890625 C 327.542969 224.730469 327.316406 225.554688 327.101562 226.347656 C 326.804688 227.109375 326.515625 227.839844 326.25 228.519531 C 325.28125 230.933594 324.1875 233.65625 323.15625 236.226562 C 322.730469 237.285156 322.996094 236.261719 323.585938 234.585938 C 324.328125 232.480469 325.074219 230.367188 325.824219 228.226562 C 326.816406 225.847656 327.238281 223.351562 327.890625 220.960938 C 328.488281 218.558594 329.074219 216.1875 329.65625 213.832031 C 330.445312 209.050781 331.078125 204.289062 331.722656 199.4375 C 331.808594 196.667969 331.886719 194.148438 331.964844 191.617188 C 331.976562 191.320312 331.976562 191.097656 331.976562 190.910156 C 332.027344 189.328125 332.09375 187.746094 332.09375 186.148438 C 332.09375 179.859375 331.625 173.679688 330.785156 167.617188 C 330.789062 167.625 330.796875 167.640625 330.804688 167.644531 C 331.035156 167.832031 330.847656 164.078125 329.605469 157.664062 C 329.460938 157.089844 329.3125 156.503906 329.171875 155.945312 C 328.25 152.40625 327.359375 148.988281 326.507812 145.726562 C 325.402344 142.535156 324.347656 139.492188 323.347656 136.613281 C 318.363281 124.027344 311.863281 112.027344 303.308594 101.277344 C 301.796875 99.207031 299.964844 97.410156 298.316406 95.46875 C 296.59375 93.59375 295.003906 91.585938 293.164062 89.816406 C 291.292969 88.074219 289.414062 86.332031 287.523438 84.570312 L 284.671875 81.929688 C 283.679688 81.089844 282.609375 80.335938 281.570312 79.527344 C 281.136719 79.1875 280.769531 78.898438 280.347656 78.570312 C 278.449219 77.097656 277.492188 76.175781 278.457031 76.792969 C 280.054688 77.839844 282.707031 79.574219 285.378906 81.625 C 287.308594 83.3125 289.269531 85.03125 291.335938 86.835938 C 292.351562 87.761719 293.394531 88.710938 294.472656 89.691406 C 295.476562 90.75 296.453125 91.898438 297.492188 93.074219 C 298.792969 94.53125 300.535156 96.476562 302.074219 98.203125 C 302.074219 98.203125 301.859375 97.984375 301.839844 97.964844 C 302.339844 98.484375 302.851562 99.019531 303.363281 99.554688 L 304.746094 101.308594 C 305.664062 102.460938 306.558594 103.582031 307.351562 104.578125 C 309.058594 106.8125 311.289062 109.269531 313.074219 112.472656 L 316.363281 117.882812 C 317.480469 119.679688 318.585938 121.484375 319.433594 123.421875 L 322.179688 129.144531 C 323.066406 131.058594 324.101562 132.910156 324.738281 134.914062 C 326.515625 140.019531 328.785156 144.90625 329.917969 150.210938 C 330.660156 153.109375 331.449219 156.007812 332.140625 158.929688 C 332.597656 161.898438 333.054688 164.867188 333.511719 167.824219 C 333.746094 169.320312 333.953125 170.648438 334.132812 171.820312 C 334.273438 172.996094 334.277344 174.03125 334.347656 174.914062 C 334.457031 176.679688 334.539062 177.871094 334.617188 178.585938 C 334.761719 180.011719 334.867188 179.527344 335.011719 177.90625 C 335.148438 176.375 335.367188 177.011719 335.699219 180.097656 C 335.835938 181.402344 336 182.996094 336.125 184.207031 C 336.230469 185.101562 336.339844 186.023438 336.410156 186.136719 C 336.476562 186.25 336.511719 185.589844 336.523438 184.734375 C 336.507812 184.4375 336.410156 182.378906 336.359375 181.421875 C 335.992188 176.28125 335.894531 173.632812 335.671875 171.425781 C 335.34375 169.226562 335.136719 167.449219 334.734375 164.03125 C 334.484375 161.941406 334.246094 159.902344 334.015625 158.003906 C 333.636719 156.128906 333.277344 154.398438 332.96875 152.882812 L 332.914062 152.578125 L 332.832031 152.25 L 332.84375 152.292969 L 332.839844 152.277344 L 332.847656 152.328125 L 331.21875 145.894531 C 331.480469 146.703125 331.757812 147.558594 332 148.300781 C 333.328125 152.316406 333.5 151.914062 332.15625 145.730469 C 330.863281 140.925781 329.359375 136.664062 327.949219 132.101562 C 327.859375 131.730469 327.46875 130.847656 327.398438 130.734375 C 327.003906 129.964844 326.507812 129 326.328125 128.71875 C 325.257812 127.140625 325.398438 127.257812 327.820312 133.375 C 329.890625 139.339844 330.769531 142.421875 330.863281 143.425781 C 330.890625 143.726562 330.015625 141.648438 329.285156 139.644531 C 327.8125 135.640625 326.480469 131.574219 324.480469 127.792969 C 322.574219 123.980469 320.972656 120 318.609375 116.4375 C 317.742188 114.960938 316.867188 113.472656 316.070312 112.109375 C 314.796875 109.871094 313.570312 107.722656 312.035156 105.722656 L 312.054688 105.75 C 311.648438 104.71875 313.542969 106.289062 318.285156 114.136719 C 319.183594 115.570312 320.160156 117.125 320.941406 118.363281 C 322.320312 120.570312 323.257812 122.652344 323.144531 122.027344 C 322.738281 120.480469 322.710938 119.714844 322.972656 119.53125 C 323.109375 119.445312 322.617188 118.191406 321.667969 116.484375 C 320.296875 113.953125 318.964844 111.496094 317.289062 108.402344 C 316.492188 106.820312 315.34375 105.25 314.050781 103.433594 C 312.742188 101.621094 311.261719 99.582031 309.554688 97.226562 C 308.21875 95.253906 306.605469 93.640625 305.171875 91.9375 C 303.703125 90.257812 302.265625 88.613281 300.8125 86.953125 C 292.417969 78.25 282.273438 69.4375 270.636719 62.964844 C 269.132812 62.070312 267.65625 61.152344 266.132812 60.339844 L 261.4375 58.167969 C 259.609375 57.226562 257.613281 56.195312 255.359375 55.027344 C 252.960938 53.785156 250.074219 52.90625 246.925781 51.675781 C 236.039062 47.433594 224.5625 45.242188 213.046875 43.644531 L 204.328125 43.152344 C 201.414062 43.042969 198.5 42.703125 195.578125 42.96875 C 189.742188 43.324219 183.847656 43.28125 178.03125 44.4375 C 176.167969 44.71875 174.269531 45.007812 172.390625 45.296875 C 169.242188 45.648438 166.214844 46.617188 163.144531 47.363281 C 160.105469 48.21875 156.976562 48.785156 154.015625 49.902344 C 148.089844 52.089844 142.058594 54.050781 136.464844 57.023438 L 130.132812 60.144531 L 124.085938 63.789062 L 118.046875 67.457031 L 112.371094 71.660156 C 110.816406 72.816406 109.339844 73.910156 107.894531 74.980469 C 106.441406 76.039062 105.207031 77.292969 103.859375 78.417969 C 97.589844 83.617188 91.507812 89.976562 85.9375 96.992188 C 83.207031 100.789062 80.726562 103.761719 78.449219 107.125 C 77.160156 109.152344 75.84375 111.214844 74.445312 113.40625 C 73.058594 115.601562 71.5625 117.910156 70.355469 120.660156 C 68.9375 123.597656 67.570312 126.417969 66.21875 129.210938 C 65.871094 129.980469 65.582031 130.769531 65.273438 131.550781 C 65.382812 131.269531 65.46875 130.976562 65.578125 130.691406 C 66.285156 128.507812 67.644531 126.300781 68.625 124.105469 L 72.0625 116.902344 L 76.21875 110.066406 C 78.738281 105.359375 82.199219 101.308594 85.21875 97.089844 C 88.355469 92.628906 92.300781 88.890625 95.765625 84.691406 C 99.832031 81.09375 103.578125 77.035156 108.085938 73.703125 C 109.238281 72.820312 110.34375 71.972656 111.46875 71.113281 C 122.652344 62.507812 135.125 55.339844 148.484375 50.714844 L 153.109375 48.917969 L 157.902344 47.636719 C 161.109375 46.816406 164.269531 45.796875 167.476562 45.082031 C 173.976562 44.144531 180.292969 42.484375 186.558594 42.269531 C 194.132812 41.230469 202.078125 41.734375 210.027344 41.945312 C 224.914062 43.269531 239.761719 47.316406 252.058594 51.320312 C 259.652344 54.84375 264.9375 56.242188 269.316406 58.226562 C 276.3125 60.710938 283.589844 64.425781 292.105469 70.34375 C 293.765625 71.621094 294.460938 71.816406 294.585938 71.425781 C 294.84375 70.546875 293.695312 68.007812 291.125 64.945312 C 289.125 62.648438 288.59375 61.433594 289.0625 60.960938 C 289.414062 60.605469 289.832031 60.304688 290.09375 59.875 C 290.246094 59.632812 290.28125 59.289062 290.054688 58.757812 C 289.96875 58.554688 289.0625 57.660156 288.410156 57.128906 C 287.78125 56.613281 286.707031 55.886719 286.34375 55.722656 C 283.269531 54.335938 282.1875 54.597656 281.191406 55.101562 C 280.378906 55.5 279.691406 56.003906 278.070312 55.839844 C 275.699219 55.605469 272.632812 54.871094 270.882812 55.066406 C 270.207031 55.136719 268.449219 54.414062 266.125 53.171875 C 253.882812 47.90625 241.308594 43.339844 225.730469 40.019531 C 218.339844 38.929688 210.761719 37.351562 204.171875 37.6875 C 199.148438 37.613281 193.90625 37.421875 188.535156 37.984375 C 185.847656 38.128906 183.125 38.273438 180.382812 38.421875 C 177.671875 38.835938 174.941406 39.253906 172.203125 39.675781 C 169.234375 40.199219 165.929688 40.3125 163.253906 41.25 C 152.996094 43.996094 142.078125 47.105469 132.027344 52.144531 C 130.203125 53.011719 128.136719 53.949219 126.710938 54.730469 C 122.253906 57.617188 116.925781 60.699219 112.175781 64.035156 C 109.226562 66.25 106.1875 68.53125 103.15625 70.808594 C 100.25 73.242188 97.546875 75.902344 94.804688 78.332031 C 91.554688 81.042969 88.988281 84.488281 86.007812 87.578125 C 82.953125 90.621094 80.449219 94.160156 77.796875 97.617188 L 74.070312 102.511719 C 73.015625 104.253906 71.96875 105.984375 70.929688 107.699219 C 68.886719 111.140625 66.699219 114.421875 65.339844 117.988281 C 64.421875 120.085938 63.289062 122.425781 62.160156 124.6875 C 58.945312 132.160156 55.796875 139.871094 53.976562 147.765625 C 51.808594 154.671875 51.175781 161.75 49.472656 168.90625 C 49.199219 171.542969 49.074219 174.09375 49.0625 176.433594 C 49.058594 178.25 49.054688 179.949219 49.054688 181.796875 C 48.929688 185.300781 49.402344 189.289062 48.996094 192.140625 C 48.746094 194.777344 48.515625 197.203125 48.703125 199.617188 C 49.011719 202.023438 49.472656 204.441406 50.109375 207.125 C 50.515625 208.851562 50.90625 210.898438 51.285156 213.03125 C 51.8125 215.136719 52.492188 217.292969 53.074219 219.320312 C 54.144531 222.523438 54.691406 226.117188 55.859375 229.578125 C 57.25 233.910156 58.507812 238.121094 60.179688 242.085938 C 62.066406 245.953125 63.917969 249.761719 65.792969 253.621094 C 66.875 255.328125 67.867188 256.890625 68.9375 258.585938 C 70.230469 260.828125 71.542969 263.101562 72.847656 265.359375 C 74.242188 267.566406 75.863281 269.609375 77.308594 271.695312 C 79.003906 273.902344 80.519531 276.058594 82.316406 278.074219 C 84.175781 280.039062 86.050781 282.066406 88.015625 284.421875 C 90.199219 287.285156 93.066406 290.027344 95.613281 292.171875 L 102.027344 297.867188 L 108.742188 303.097656 C 113 306.882812 117.929688 309.660156 122.523438 313.054688 C 125.398438 315.207031 128.683594 316.621094 131.808594 318.5 C 145.71875 325.667969 160.746094 331.421875 176.558594 333.738281 C 179.046875 334.359375 181.835938 334.453125 184.398438 334.53125 C 187.542969 334.660156 189.8125 334.308594 188.804688 333.851562 C 187.386719 333.210938 185.828125 332.5625 184.125 331.917969 C 181.476562 331.042969 178.0625 329.917969 173.78125 328.503906 C 172.394531 328.089844 170.886719 327.675781 169.320312 327.265625 C 186.996094 330.945312 205.289062 331.292969 223.105469 328.300781 C 224.398438 328.117188 225.703125 327.929688 227.007812 327.742188 C 228.308594 327.5 229.585938 327.132812 230.886719 326.828125 C 233.472656 326.175781 236.078125 325.515625 238.695312 324.855469 C 241.347656 324.285156 243.847656 323.222656 246.410156 322.320312 C 248.949219 321.382812 251.496094 320.441406 254.03125 319.507812 C 266.839844 313.882812 278.957031 306.660156 289.472656 298 C 305.789062 284.453125 318.769531 267.089844 327.164062 249.078125 L 327.144531 249.132812 C 327.199219 249.015625 327.246094 248.90625 327.300781 248.789062 L 327.332031 248.71875 L 327.328125 248.726562 C 328.121094 246.957031 329.082031 244.8125 329.613281 243.628906 C 330.820312 240.921875 331.632812 237.683594 332.964844 234.019531 "/>
<path style=" stroke:none;fill-rule:nonzero;fill:rgb(34.118652%,48.239136%,85.099792%);fill-opacity:1;" d="M 331.613281 205.808594 C 331.460938 207.472656 331.5 207.9375 331.832031 206.429688 C 331.976562 205.675781 332.285156 204.027344 332.445312 203.160156 C 332.609375 202.042969 332.765625 200.980469 332.902344 200.007812 C 332.929688 199.027344 332.953125 198.140625 332.976562 197.398438 C 332.996094 195.910156 332.964844 194.988281 332.886719 194.980469 C 332.792969 194.96875 332.660156 196.011719 332.5 198.296875 C 332.394531 200.828125 331.695312 204.140625 331.613281 205.808594 "/>
<path style=" stroke:none;fill-rule:nonzero;fill:rgb(34.118652%,48.239136%,85.099792%);fill-opacity:1;" d="M 335.371094 191.773438 C 335.34375 192.265625 335.304688 192.976562 335.285156 193.324219 C 335.214844 196.050781 335.265625 196.976562 335.410156 196.355469 C 335.414062 196.277344 335.476562 195.492188 335.511719 195 C 335.53125 194.484375 335.558594 193.789062 335.574219 193.402344 C 335.605469 191.5625 335.582031 190.507812 335.46875 190.90625 C 335.445312 190.988281 335.40625 191.445312 335.371094 191.773438 "/>
<path style=" stroke:none;fill-rule:nonzero;fill:rgb(34.118652%,48.239136%,85.099792%);fill-opacity:1;" d="M 339.792969 194.621094 L 339.738281 194.636719 L 339.703125 195.820312 Z M 339.792969 194.621094 "/>
<path style=" stroke:none;fill-rule:nonzero;fill:rgb(34.118652%,48.239136%,85.099792%);fill-opacity:1;" d="M 316.90625 112.96875 C 316.957031 113.035156 316.972656 113.054688 316.988281 113.074219 C 316.914062 112.953125 316.832031 112.820312 316.757812 112.695312 L 316.90625 112.96875 "/>
<path style=" stroke:none;fill-rule:nonzero;fill:rgb(34.118652%,48.239136%,85.099792%);fill-opacity:1;" d="M 317.21875 113.449219 C 317.390625 113.71875 317.558594 113.933594 317.476562 113.773438 C 316.925781 112.785156 316.570312 112.21875 316.5 112.222656 L 316.375 112.066406 L 316.4375 112.167969 C 316.863281 112.832031 317.074219 113.175781 316.988281 113.074219 C 317.074219 113.214844 317.15625 113.351562 317.21875 113.449219 "/>
<g style="fill:rgb(100%,100%,100%);fill-opacity:1;">
  <use xlink:href="#glyph0-0" x="86.496616" y="191.565736"/>
</g>
<g style="fill:rgb(100%,100%,100%);fill-opacity:1;">
  <use xlink:href="#glyph0-1" x="112.728073" y="191.565736"/>
</g>
<g style="fill:rgb(100%,100%,100%);fill-opacity:1;">
  <use xlink:href="#glyph0-2" x="142.186753" y="191.565736"/>
</g>
<g style="fill:rgb(100%,100%,100%);fill-opacity:1;">
  <use xlink:href="#glyph0-2" x="162.708527" y="191.565736"/>
</g>
<g style="fill:rgb(100%,100%,100%);fill-opacity:1;">
  <use xlink:href="#glyph0-3" x="183.230296" y="191.565736"/>
</g>
<g style="fill:rgb(100%,100%,100%);fill-opacity:1;">
  <use xlink:href="#glyph0-4" x="198.290632" y="191.565736"/>
</g>
<g style="fill:rgb(100%,100%,100%);fill-opacity:1;">
  <use xlink:href="#glyph0-5" x="219.639894" y="191.565736"/>
</g>
<g style="fill:rgb(100%,100%,100%);fill-opacity:1;">
  <use xlink:href="#glyph0-6" x="250.008812" y="191.565736"/>
</g>
<g style="fill:rgb(100%,100%,100%);fill-opacity:1;">
  <use xlink:href="#glyph0-7" x="276.074763" y="191.565736"/>
</g>
<g clip-path="url(#clip2)" clip-rule="nonzero">
<g clip-path="url(#clip3)" clip-rule="nonzero">
<g clip-path="url(#clip4)" clip-rule="nonzero">
<path style=" stroke:none;fill-rule:nonzero;fill:rgb(100%,87.059021%,34.899902%);fill-opacity:1;" d="M 185.855469 86.425781 C 183.222656 81.332031 177.679688 78.078125 173.652344 74.214844 C 172.648438 73.25 171.175781 74.472656 172.007812 75.625 C 175.253906 80.082031 179.140625 84.292969 182.859375 88.351562 C 184.207031 89.804688 186.824219 88.292969 185.855469 86.425781 Z M 185.855469 86.425781 "/>
</g>
</g>
</g>
<g clip-path="url(#clip5)" clip-rule="nonzero">
<g clip-path="url(#clip6)" clip-rule="nonzero">
<g clip-path="url(#clip7)" clip-rule="nonzero">
<path style=" stroke:none;fill-rule:nonzero;fill:rgb(100%,87.059021%,34.899902%);fill-opacity:1;" d="M 191.4375 95.042969 C 191.316406 95.25 191.261719 95.457031 191.25 95.644531 C 189.230469 97.585938 188.433594 100.910156 189.515625 103.511719 C 190.953125 106.984375 195.679688 107.320312 198.246094 104.933594 C 200.472656 102.847656 200.449219 99.445312 198.941406 96.921875 C 198.230469 95.722656 197.132812 94.726562 195.816406 94.257812 C 194.46875 93.777344 192.226562 93.621094 191.4375 95.042969 Z M 196.0625 98.269531 C 196.78125 99.335938 196.773438 100.726562 195.75 101.566406 C 192.582031 104.171875 192.035156 99.585938 192.78125 97.085938 C 193.347656 97.113281 193.914062 96.949219 194.507812 97.113281 C 195.15625 97.269531 195.703125 97.722656 196.0625 98.269531 Z M 196.0625 98.269531 "/>
</g>
</g>
</g>
<g clip-path="url(#clip8)" clip-rule="nonzero">
<g clip-path="url(#clip9)" clip-rule="nonzero">
<g clip-path="url(#clip10)" clip-rule="nonzero">
<path style=" stroke:none;fill-rule:nonzero;fill:rgb(100%,87.059021%,34.899902%);fill-opacity:1;" d="M 183.65625 105.050781 C 181.128906 105.988281 179.128906 107.453125 177.125 109.222656 C 175.363281 110.78125 173.5 112.390625 172.503906 114.578125 C 172.242188 115.136719 172.878906 115.902344 173.484375 115.722656 C 175.683594 115.066406 177.289062 113.53125 179.042969 112.101562 C 181.019531 110.484375 183.121094 108.933594 185.25 107.535156 C 186.722656 106.558594 185.101562 104.523438 183.65625 105.050781 Z M 183.65625 105.050781 "/>
</g>
</g>
</g>
<g clip-path="url(#clip11)" clip-rule="nonzero">
<g clip-path="url(#clip12)" clip-rule="nonzero">
<g clip-path="url(#clip13)" clip-rule="nonzero">
<path style=" stroke:none;fill-rule:nonzero;fill:rgb(100%,87.059021%,34.899902%);fill-opacity:1;" d="M 213.792969 82.492188 C 211.496094 82.914062 210.03125 84.46875 208.351562 85.980469 C 206.585938 87.578125 204.789062 89.097656 203.246094 90.914062 C 202.257812 92.082031 203.929688 94.035156 205.246094 93.25 C 207.277344 92.003906 209.058594 90.464844 210.910156 88.96875 C 212.660156 87.542969 214.425781 86.332031 215.195312 84.128906 C 215.5 83.25 214.703125 82.320312 213.792969 82.492188 Z M 213.792969 82.492188 "/>
</g>
</g>
</g>
<g clip-path="url(#clip14)" clip-rule="nonzero">
<g clip-path="url(#clip15)" clip-rule="nonzero">
<g clip-path="url(#clip16)" clip-rule="nonzero">
<path style=" stroke:none;fill-rule:nonzero;fill:rgb(100%,87.059021%,34.899902%);fill-opacity:1;" d="M 201.257812 110.757812 C 200.292969 110.203125 199.246094 111.097656 199.644531 112.140625 C 200.785156 115.121094 203.140625 117.769531 205.078125 120.261719 C 207.078125 122.824219 209.179688 125.585938 212.027344 127.25 C 213.367188 128.035156 214.839844 126.773438 214.269531 125.328125 C 213.070312 122.257812 210.664062 119.757812 208.441406 117.386719 C 206.269531 115.074219 204.027344 112.347656 201.257812 110.757812 Z M 201.257812 110.757812 "/>
</g>
</g>
</g>
<g clip-path="url(#clip17)" clip-rule="nonzero">
<g clip-path="url(#clip18)" clip-rule="nonzero">
<g clip-path="url(#clip19)" clip-rule="nonzero">
<path style=" stroke:none;fill-rule:nonzero;fill:rgb(100%,87.059021%,34.899902%);fill-opacity:1;" d="M 178.371094 95.402344 C 176.949219 94.4375 175.554688 96.550781 176.894531 97.585938 C 178.535156 98.863281 180.632812 99.566406 182.6875 99.171875 C 184.144531 98.902344 184.074219 96.660156 182.539062 96.550781 C 181.042969 96.449219 179.65625 96.269531 178.371094 95.402344 Z M 178.371094 95.402344 "/>
</g>
</g>
</g>
<g clip-path="url(#clip20)" clip-rule="nonzero">
<g clip-path="url(#clip21)" clip-rule="nonzero">
<g clip-path="url(#clip22)" clip-rule="nonzero">
<path style=" stroke:none;fill-rule:nonzero;fill:rgb(100%,87.059021%,34.899902%);fill-opacity:1;" d="M 191.664062 113.34375 C 190.363281 115.648438 190.707031 118.476562 192.625 120.367188 C 193.058594 120.792969 193.972656 120.523438 193.789062 119.8125 C 193.296875 117.925781 193.574219 115.96875 193.6875 114.0625 C 193.746094 113.019531 192.234375 112.34375 191.664062 113.34375 Z M 191.664062 113.34375 "/>
</g>
</g>
</g>
<g clip-path="url(#clip23)" clip-rule="nonzero">
<g clip-path="url(#clip24)" clip-rule="nonzero">
<g clip-path="url(#clip25)" clip-rule="nonzero">
<path style=" stroke:none;fill-rule:nonzero;fill:rgb(100%,87.059021%,34.899902%);fill-opacity:1;" d="M 211.402344 105.894531 C 210.035156 105.714844 209.527344 107.960938 210.910156 108.300781 C 212.628906 108.726562 214.292969 109.398438 216.046875 109.617188 C 217.171875 109.757812 217.625 108.214844 216.75 107.597656 C 215.183594 106.507812 213.25 106.121094 211.402344 105.894531 Z M 211.402344 105.894531 "/>
</g>
</g>
</g>
<g clip-path="url(#clip26)" clip-rule="nonzero">
<g clip-path="url(#clip27)" clip-rule="nonzero">
<g clip-path="url(#clip28)" clip-rule="nonzero">
<path style=" stroke:none;fill-rule:nonzero;fill:rgb(100%,87.059021%,34.899902%);fill-opacity:1;" d="M 196.710938 86.359375 C 198.1875 84.15625 199.070312 81.203125 199.085938 78.546875 C 199.085938 77.230469 197.296875 76.351562 196.507812 77.628906 C 195.113281 79.90625 194.425781 82.867188 194.410156 85.542969 C 194.40625 86.753906 195.972656 87.453125 196.710938 86.359375 Z M 196.710938 86.359375 "/>
</g>
</g>
</g>
<g style="fill:rgb(100%,100%,100%);fill-opacity:1;">
  <use xlink:href="#glyph1-1" x="133.281148" y="234.775957"/>
</g>
<g style="fill:rgb(100%,100%,100%);fill-opacity:1;">
  <use xlink:href="#glyph1-2" x="143.730429" y="234.775957"/>
</g>
<g style="fill:rgb(100%,100%,100%);fill-opacity:1;">
  <use xlink:href="#glyph1-3" x="153.740256" y="234.775957"/>
</g>
<g style="fill:rgb(100%,100%,100%);fill-opacity:1;">
  <use xlink:href="#glyph1-4" x="161.104578" y="234.775957"/>
</g>
<g style="fill:rgb(100%,100%,100%);fill-opacity:1;">
  <use xlink:href="#glyph1-5" x="168.178857" y="234.775957"/>
</g>
<g style="fill:rgb(100%,100%,100%);fill-opacity:1;">
  <use xlink:href="#glyph1-6" x="174.163293" y="234.775957"/>
</g>
<g style="fill:rgb(100%,100%,100%);fill-opacity:1;">
  <use xlink:href="#glyph1-7" x="185.104759" y="234.775957"/>
</g>
<g style="fill:rgb(100%,100%,100%);fill-opacity:1;">
  <use xlink:href="#glyph1-4" x="196.046226" y="234.775957"/>
</g>
<g style="fill:rgb(100%,100%,100%);fill-opacity:1;">
  <use xlink:href="#glyph1-7" x="203.120505" y="234.775957"/>
</g>
<g style="fill:rgb(100%,100%,100%);fill-opacity:1;">
  <use xlink:href="#glyph1-8" x="214.061971" y="234.775957"/>
</g>
<g style="fill:rgb(100%,100%,100%);fill-opacity:1;">
  <use xlink:href="#glyph1-4" x="225.003438" y="234.775957"/>
</g>
<g style="fill:rgb(100%,100%,100%);fill-opacity:1;">
  <use xlink:href="#glyph1-6" x="232.077723" y="234.775957"/>
</g>
<g style="fill:rgb(100%,100%,100%);fill-opacity:1;">
  <use xlink:href="#glyph1-9" x="243.01919" y="234.775957"/>
</g>
</g>
</svg>
